<svg xmlns="http://www.w3.org/2000/svg" width="240" height="160"><path d="M141,89L134,47L102,97Z" fill="rgb(152,0,10)" stroke="rgb(152,0,10)" stroke-width="1.51"/><path d="M134,47L88,29L102,97Z" fill="rgb(172,0,10)" stroke="rgb(172,0,10)" stroke-width="1.51"/><path d="M102,97L154,129L141,89Z" fill="rgb(134,0,10)" stroke="rgb(134,0,10)" stroke-width="1.51"/><path d="M46,82L96,125L102,97Z" fill="rgb(156,0,9)" stroke="rgb(156,0,9)" stroke-width="1.51"/><path d="M141,89L182,67L134,47Z" fill="rgb(148,0,10)" stroke="rgb(148,0,10)" stroke-width="1.51"/><path d="M154,129L182,67L141,89Z" fill="rgb(129,0,10)" stroke="rgb(129,0,10)" stroke-width="1.51"/><path d="M96,125L154,129L102,97Z" fill="rgb(133,0,10)" stroke="rgb(133,0,10)" stroke-width="1.51"/><path d="M88,29L46,82L102,97Z" fill="rgb(177,0,9)" stroke="rgb(177,0,9)" stroke-width="1.51"/><path d="M88,29L48,29L46,82Z" fill="rgb(199,0,8)" stroke="rgb(199,0,8)" stroke-width="1.51"/><path d="M134,47L131,-25L88,29Z" fill="rgb(193,0,8)" stroke="rgb(193,0,8)" stroke-width="1.51"/><path d="M88,29L42,-5L48,29Z" fill="rgb(218,0,6)" stroke="rgb(218,0,6)" stroke-width="1.51"/><path d="M199,18L131,-25L134,47Z" fill="rgb(180,0,9)" stroke="rgb(180,0,9)" stroke-width="1.51"/><path d="M182,67L199,18L134,47Z" fill="rgb(154,0,10)" stroke="rgb(154,0,10)" stroke-width="1.51"/><path d="M154,129L190,140L182,67Z" fill="rgb(113,0,9)" stroke="rgb(113,0,9)" stroke-width="1.51"/><path d="M182,67L248,48L199,18Z" fill="rgb(139,0,10)" stroke="rgb(139,0,10)" stroke-width="1.51"/><path d="M153,184L190,140L154,129Z" fill="rgb(95,0,6)" stroke="rgb(95,0,6)" stroke-width="1.51"/><path d="M46,82L34,128L96,125Z" fill="rgb(159,0,10)" stroke="rgb(159,0,10)" stroke-width="1.51"/><path d="M96,125L86,173L154,129Z" fill="rgb(120,0,9)" stroke="rgb(120,0,9)" stroke-width="1.51"/><path d="M0,132L34,128L46,82Z" fill="rgb(171,0,9)" stroke="rgb(171,0,9)" stroke-width="1.51"/><path d="M34,128L86,173L96,125Z" fill="rgb(136,0,10)" stroke="rgb(136,0,10)" stroke-width="1.51"/><path d="M80,-38L42,-5L88,29Z" fill="rgb(225,0,5)" stroke="rgb(225,0,5)" stroke-width="1.51"/><path d="M48,29L-2,64L46,82Z" fill="rgb(204,0,7)" stroke="rgb(204,0,7)" stroke-width="1.51"/><path d="M131,-25L80,-38L88,29Z" fill="rgb(212,0,6)" stroke="rgb(212,0,6)" stroke-width="1.51"/><path d="M86,173L153,184L154,129Z" fill="rgb(103,0,7)" stroke="rgb(103,0,7)" stroke-width="1.51"/><path d="M248,48L208,-5L199,18Z" fill="rgb(150,0,10)" stroke="rgb(150,0,10)" stroke-width="1.51"/><path d="M199,18L208,-5L131,-25Z" fill="rgb(178,0,9)" stroke="rgb(178,0,9)" stroke-width="1.51"/><path d="M-12,39L-2,64L48,29Z" fill="rgb(221,0,5)" stroke="rgb(221,0,5)" stroke-width="1.51"/><path d="M190,140L231,118L182,67Z" fill="rgb(105,0,7)" stroke="rgb(105,0,7)" stroke-width="1.51"/><path d="M204,175L231,118L190,140Z" fill="rgb(83,0,5)" stroke="rgb(83,0,5)" stroke-width="1.51"/><path d="M86,173L131,235L153,184Z" fill="rgb(106,0,7)" stroke="rgb(106,0,7)" stroke-width="1.51"/><path d="M34,128L40,175L86,173Z" fill="rgb(133,0,9)" stroke="rgb(133,0,9)" stroke-width="1.51"/><path d="M0,132L40,175L34,128Z" fill="rgb(153,0,10)" stroke="rgb(153,0,10)" stroke-width="1.51"/><path d="M231,118L247,69L182,67Z" fill="rgb(112,0,8)" stroke="rgb(112,0,8)" stroke-width="1.51"/><path d="M-2,64L0,132L46,82Z" fill="rgb(189,0,8)" stroke="rgb(189,0,8)" stroke-width="1.51"/><path d="M247,69L248,48L182,67Z" fill="rgb(123,0,9)" stroke="rgb(123,0,9)" stroke-width="1.51"/><path d="M-2,64L-59,113L0,132Z" fill="rgb(188,0,8)" stroke="rgb(188,0,8)" stroke-width="1.51"/><path d="M42,-5L-12,39L48,29Z" fill="rgb(229,0,4)" stroke="rgb(229,0,4)" stroke-width="1.51"/><path d="M-49,19L-12,39L-23,-34Z" fill="rgb(249,0,1)" stroke="rgb(249,0,1)" stroke-width="1.51"/><path d="M153,184L204,175L190,140Z" fill="rgb(84,0,4)" stroke="rgb(84,0,4)" stroke-width="1.51"/><path d="M80,-38L46,-70L42,-5Z" fill="rgb(230,0,4)" stroke="rgb(230,0,4)" stroke-width="1.51"/><path d="M131,-25L83,-64L80,-38Z" fill="rgb(212,0,6)" stroke="rgb(212,0,6)" stroke-width="1.51"/><path d="M158,-85L83,-64L131,-25Z" fill="rgb(201,0,7)" stroke="rgb(201,0,7)" stroke-width="1.51"/><path d="M203,-70L158,-85L131,-25Z" fill="rgb(185,0,9)" stroke="rgb(185,0,9)" stroke-width="1.51"/><path d="M248,48L235,-25L208,-5Z" fill="rgb(154,0,10)" stroke="rgb(154,0,10)" stroke-width="1.51"/><path d="M83,-64L46,-70L80,-38Z" fill="rgb(225,0,5)" stroke="rgb(225,0,5)" stroke-width="1.51"/><path d="M91,237L131,235L86,173Z" fill="rgb(114,0,8)" stroke="rgb(114,0,8)" stroke-width="1.51"/><path d="M0,132L10,190L40,175Z" fill="rgb(147,0,10)" stroke="rgb(147,0,10)" stroke-width="1.51"/><path d="M203,-70L131,-25L208,-5Z" fill="rgb(178,0,9)" stroke="rgb(178,0,9)" stroke-width="1.51"/><path d="M83,-64L158,-85L46,-70Z" fill="rgb(213,0,6)" stroke="rgb(213,0,6)" stroke-width="1.51"/><path d="M211,237L227,214L204,175Z" fill="rgb(73,0,2)" stroke="rgb(73,0,2)" stroke-width="1.51"/><path d="M91,237L86,173L40,227Z" fill="rgb(125,0,9)" stroke="rgb(125,0,9)" stroke-width="1.51"/><path d="M235,-25L203,-70L208,-5Z" fill="rgb(163,0,10)" stroke="rgb(163,0,10)" stroke-width="1.51"/><path d="M40,227L86,173L40,175Z" fill="rgb(132,0,10)" stroke="rgb(132,0,10)" stroke-width="1.51"/><path d="M10,190L40,227L40,175Z" fill="rgb(142,0,10)" stroke="rgb(142,0,10)" stroke-width="1.51"/><path d="M-74,68L-59,113L-2,64Z" fill="rgb(202,0,7)" stroke="rgb(202,0,7)" stroke-width="1.51"/><path d="M0,132L-44,185L10,190Z" fill="rgb(154,0,10)" stroke="rgb(154,0,10)" stroke-width="1.51"/><path d="M-23,-34L-12,39L42,-5Z" fill="rgb(254,0,0)" stroke="rgb(254,0,0)" stroke-width="1.51"/><path d="M46,-70L-23,-34L42,-5Z" fill="rgb(245,0,2)" stroke="rgb(245,0,2)" stroke-width="1.51"/><path d="M231,118L289,111L247,69Z" fill="rgb(96,0,6)" stroke="rgb(96,0,6)" stroke-width="1.51"/><path d="M247,69L307,30L248,48Z" fill="rgb(125,0,9)" stroke="rgb(125,0,9)" stroke-width="1.51"/><path d="M248,48L283,-23L235,-25Z" fill="rgb(154,0,10)" stroke="rgb(154,0,10)" stroke-width="1.51"/><path d="M278,194L289,111L231,118Z" fill="rgb(74,0,2)" stroke="rgb(74,0,2)" stroke-width="1.51"/><path d="M242,197L231,118L204,175Z" fill="rgb(69,0,1)" stroke="rgb(69,0,1)" stroke-width="1.51"/><path d="M227,214L242,197L204,175Z" fill="rgb(69,0,1)" stroke="rgb(69,0,1)" stroke-width="1.51"/><path d="M289,111L294,98L247,69Z" fill="rgb(100,0,7)" stroke="rgb(100,0,7)" stroke-width="1.51"/><path d="M211,237L204,175L153,184Z" fill="rgb(82,0,4)" stroke="rgb(82,0,4)" stroke-width="1.51"/><path d="M-74,68L-2,64L-12,39Z" fill="rgb(218,0,6)" stroke="rgb(218,0,6)" stroke-width="1.51"/><path d="M10,190L-3,217L40,227Z" fill="rgb(147,0,10)" stroke="rgb(147,0,10)" stroke-width="1.51"/><path d="M-44,185L-3,217L10,190Z" fill="rgb(154,0,10)" stroke="rgb(154,0,10)" stroke-width="1.51"/><path d="M46,-70L11,-86L-23,-34Z" fill="rgb(250,0,1)" stroke="rgb(250,0,1)" stroke-width="1.51"/><path d="M158,-85L11,-86L46,-70Z" fill="rgb(224,0,5)" stroke="rgb(224,0,5)" stroke-width="1.51"/><path d="M131,235L211,237L153,184Z" fill="rgb(90,0,5)" stroke="rgb(90,0,5)" stroke-width="1.51"/><path d="M227,214L278,194L242,197Z" fill="rgb(64,0,0)" stroke="rgb(64,0,0)" stroke-width="1.51"/><path d="M91,237L211,237L131,235Z" fill="rgb(98,0,7)" stroke="rgb(98,0,7)" stroke-width="1.51"/><path d="M235,-25L251,-84L203,-70Z" fill="rgb(158,0,10)" stroke="rgb(158,0,10)" stroke-width="1.51"/><path d="M307,30L283,-23L248,48Z" fill="rgb(143,0,10)" stroke="rgb(143,0,10)" stroke-width="1.51"/><path d="M-49,19L-74,68L-12,39Z" fill="rgb(228,0,4)" stroke="rgb(228,0,4)" stroke-width="1.51"/><path d="M-71,-4L-74,68L-49,19Z" fill="rgb(237,0,3)" stroke="rgb(237,0,3)" stroke-width="1.51"/><path d="M294,98L307,30L247,69Z" fill="rgb(115,0,8)" stroke="rgb(115,0,8)" stroke-width="1.51"/><path d="M-59,113L-44,185L0,132Z" fill="rgb(163,0,10)" stroke="rgb(163,0,10)" stroke-width="1.51"/><path d="M-71,224L-44,185L-59,113Z" fill="rgb(154,0,10)" stroke="rgb(154,0,10)" stroke-width="1.51"/><path d="M294,98L311,223L307,30Z" fill="rgb(86,0,5)" stroke="rgb(86,0,5)" stroke-width="1.51"/><path d="M289,111L311,223L294,98Z" fill="rgb(72,0,2)" stroke="rgb(72,0,2)" stroke-width="1.51"/><path d="M242,197L278,194L231,118Z" fill="rgb(64,0,0)" stroke="rgb(64,0,0)" stroke-width="1.51"/><path d="M311,223L278,194L227,214Z" fill="rgb(64,0,0)" stroke="rgb(64,0,0)" stroke-width="1.51"/><path d="M-42,-75L-71,-4L-23,-34Z" fill="rgb(255,0,0)" stroke="rgb(255,0,0)" stroke-width="1.51"/><path d="M-23,-34L-71,-4L-49,19Z" fill="rgb(255,0,0)" stroke="rgb(255,0,0)" stroke-width="1.51"/><path d="M290,-63L251,-84L235,-25Z" fill="rgb(154,0,10)" stroke="rgb(154,0,10)" stroke-width="1.51"/><path d="M203,-70L251,-84L158,-85Z" fill="rgb(168,0,9)" stroke="rgb(168,0,9)" stroke-width="1.51"/><path d="M11,-86L-42,-75L-23,-34Z" fill="rgb(255,0,0)" stroke="rgb(255,0,0)" stroke-width="1.51"/><path d="M283,-23L290,-63L235,-25Z" fill="rgb(154,0,10)" stroke="rgb(154,0,10)" stroke-width="1.51"/><path d="M307,30L290,-63L283,-23Z" fill="rgb(154,0,10)" stroke="rgb(154,0,10)" stroke-width="1.51"/><path d="M-44,185L-71,224L-3,217Z" fill="rgb(154,0,10)" stroke="rgb(154,0,10)" stroke-width="1.51"/><path d="M-3,217L-71,224L40,227Z" fill="rgb(154,0,10)" stroke="rgb(154,0,10)" stroke-width="1.51"/><path d="M40,227L-71,224L91,237Z" fill="rgb(145,0,10)" stroke="rgb(145,0,10)" stroke-width="1.51"/><path d="M-74,68L-71,224L-59,113Z" fill="rgb(169,0,9)" stroke="rgb(169,0,9)" stroke-width="1.51"/><path d="M278,194L311,223L289,111Z" fill="rgb(64,0,0)" stroke="rgb(64,0,0)" stroke-width="1.51"/><path d="M211,237L311,223L227,214Z" fill="rgb(64,0,0)" stroke="rgb(64,0,0)" stroke-width="1.51"/></svg>