<svg xmlns="http://www.w3.org/2000/svg" width="240" height="160"><path d="M87,81L83,31L31,92Z" fill="rgb(1,92,182)" stroke="rgb(1,92,182)" stroke-width="1.51"/><path d="M83,31L43,17L31,92Z" fill="rgb(0,101,202)" stroke="rgb(0,101,202)" stroke-width="1.51"/><path d="M43,17L3,48L31,92Z" fill="rgb(0,105,210)" stroke="rgb(0,105,210)" stroke-width="1.51"/><path d="M3,48L-17,73L31,92Z" fill="rgb(1,104,207)" stroke="rgb(1,104,207)" stroke-width="1.51"/><path d="M31,92L51,131L87,81Z" fill="rgb(0,84,167)" stroke="rgb(0,84,167)" stroke-width="1.51"/><path d="M-9,113L51,131L31,92Z" fill="rgb(0,87,173)" stroke="rgb(0,87,173)" stroke-width="1.51"/><path d="M-17,73L-9,113L31,92Z" fill="rgb(0,98,195)" stroke="rgb(0,98,195)" stroke-width="1.51"/><path d="M83,31L59,-25L43,17Z" fill="rgb(0,112,223)" stroke="rgb(0,112,223)" stroke-width="1.51"/><path d="M43,17L-10,-3L3,48Z" fill="rgb(0,119,236)" stroke="rgb(0,119,236)" stroke-width="1.51"/><path d="M3,48L-54,39L-17,73Z" fill="rgb(0,111,221)" stroke="rgb(0,111,221)" stroke-width="1.51"/><path d="M59,-25L-10,-3L43,17Z" fill="rgb(0,121,241)" stroke="rgb(0,121,241)" stroke-width="1.51"/><path d="M51,131L91,139L87,81Z" fill="rgb(0,75,150)" stroke="rgb(0,75,150)" stroke-width="1.51"/><path d="M156,74L83,31L87,81Z" fill="rgb(1,85,169)" stroke="rgb(1,85,169)" stroke-width="1.51"/><path d="M158,15L105,-23L83,31Z" fill="rgb(0,101,201)" stroke="rgb(0,101,201)" stroke-width="1.51"/><path d="M83,31L105,-23L59,-25Z" fill="rgb(1,110,219)" stroke="rgb(1,110,219)" stroke-width="1.51"/><path d="M161,122L156,74L87,81Z" fill="rgb(0,71,140)" stroke="rgb(0,71,140)" stroke-width="1.51"/><path d="M-10,-3L-54,39L3,48Z" fill="rgb(0,119,237)" stroke="rgb(0,119,237)" stroke-width="1.51"/><path d="M-17,73L-43,125L-9,113Z" fill="rgb(0,95,188)" stroke="rgb(0,95,188)" stroke-width="1.51"/><path d="M156,74L158,15L83,31Z" fill="rgb(0,87,173)" stroke="rgb(0,87,173)" stroke-width="1.51"/><path d="M-73,72L-43,125L-17,73Z" fill="rgb(0,99,197)" stroke="rgb(0,99,197)" stroke-width="1.51"/><path d="M6,188L36,195L51,131Z" fill="rgb(0,71,142)" stroke="rgb(0,71,142)" stroke-width="1.51"/><path d="M51,131L86,173L91,139Z" fill="rgb(0,66,131)" stroke="rgb(0,66,131)" stroke-width="1.51"/><path d="M105,-23L78,-77L59,-25Z" fill="rgb(0,111,220)" stroke="rgb(0,111,220)" stroke-width="1.51"/><path d="M158,15L128,-34L105,-23Z" fill="rgb(0,100,199)" stroke="rgb(0,100,199)" stroke-width="1.51"/><path d="M91,139L161,122L87,81Z" fill="rgb(0,68,136)" stroke="rgb(0,68,136)" stroke-width="1.51"/><path d="M36,195L86,173L51,131Z" fill="rgb(0,66,131)" stroke="rgb(0,66,131)" stroke-width="1.51"/><path d="M156,74L191,38L158,15Z" fill="rgb(0,79,157)" stroke="rgb(0,79,157)" stroke-width="1.51"/><path d="M155,164L161,122L91,139Z" fill="rgb(0,56,111)" stroke="rgb(0,56,111)" stroke-width="1.51"/><path d="M-54,39L-73,72L-17,73Z" fill="rgb(1,108,215)" stroke="rgb(1,108,215)" stroke-width="1.51"/><path d="M-54,39L-62,-9L-73,72Z" fill="rgb(0,117,233)" stroke="rgb(0,117,233)" stroke-width="1.51"/><path d="M-10,-3L-62,-9L-54,39Z" fill="rgb(0,125,249)" stroke="rgb(0,125,249)" stroke-width="1.51"/><path d="M-20,-69L-62,-9L-10,-3Z" fill="rgb(0,128,255)" stroke="rgb(0,128,255)" stroke-width="1.51"/><path d="M6,188L51,131L-9,113Z" fill="rgb(0,79,157)" stroke="rgb(0,79,157)" stroke-width="1.51"/><path d="M59,-25L-20,-69L-10,-3Z" fill="rgb(0,126,251)" stroke="rgb(0,126,251)" stroke-width="1.51"/><path d="M128,-34L78,-77L105,-23Z" fill="rgb(1,106,210)" stroke="rgb(1,106,210)" stroke-width="1.51"/><path d="M-44,161L6,188L-9,113Z" fill="rgb(0,79,157)" stroke="rgb(0,79,157)" stroke-width="1.51"/><path d="M183,-34L154,-58L128,-34Z" fill="rgb(0,95,188)" stroke="rgb(0,95,188)" stroke-width="1.51"/><path d="M211,65L191,38L156,74Z" fill="rgb(0,71,140)" stroke="rgb(0,71,140)" stroke-width="1.51"/><path d="M78,-77L62,-82L59,-25Z" fill="rgb(0,113,226)" stroke="rgb(0,113,226)" stroke-width="1.51"/><path d="M-73,72L-44,161L-43,125Z" fill="rgb(0,90,179)" stroke="rgb(0,90,179)" stroke-width="1.51"/><path d="M-43,125L-44,161L-9,113Z" fill="rgb(0,86,170)" stroke="rgb(0,86,170)" stroke-width="1.51"/><path d="M161,122L184,118L156,74Z" fill="rgb(0,61,121)" stroke="rgb(0,61,121)" stroke-width="1.51"/><path d="M155,164L184,118L161,122Z" fill="rgb(0,52,104)" stroke="rgb(0,52,104)" stroke-width="1.51"/><path d="M86,173L155,164L91,139Z" fill="rgb(0,56,111)" stroke="rgb(0,56,111)" stroke-width="1.51"/><path d="M108,243L155,164L86,173Z" fill="rgb(0,55,109)" stroke="rgb(0,55,109)" stroke-width="1.51"/><path d="M62,-82L-20,-69L59,-25Z" fill="rgb(0,120,240)" stroke="rgb(0,120,240)" stroke-width="1.51"/><path d="M183,-34L128,-34L158,15Z" fill="rgb(0,95,188)" stroke="rgb(0,95,188)" stroke-width="1.51"/><path d="M128,-34L154,-58L78,-77Z" fill="rgb(0,102,203)" stroke="rgb(0,102,203)" stroke-width="1.51"/><path d="M78,-77L283,-84L62,-82Z" fill="rgb(0,98,194)" stroke="rgb(0,98,194)" stroke-width="1.51"/><path d="M184,118L211,65L156,74Z" fill="rgb(0,63,125)" stroke="rgb(0,63,125)" stroke-width="1.51"/><path d="M191,38L183,-34L158,15Z" fill="rgb(0,88,175)" stroke="rgb(0,88,175)" stroke-width="1.51"/><path d="M241,-28L183,-34L191,38Z" fill="rgb(0,85,168)" stroke="rgb(0,85,168)" stroke-width="1.51"/><path d="M36,195L45,236L86,173Z" fill="rgb(0,66,132)" stroke="rgb(0,66,132)" stroke-width="1.51"/><path d="M6,188L-15,211L36,195Z" fill="rgb(0,76,150)" stroke="rgb(0,76,150)" stroke-width="1.51"/><path d="M-44,161L-15,211L6,188Z" fill="rgb(0,77,154)" stroke="rgb(0,77,154)" stroke-width="1.51"/><path d="M-20,-69L-60,-73L-62,-9Z" fill="rgb(0,128,255)" stroke="rgb(0,128,255)" stroke-width="1.51"/><path d="M-62,-9L-60,-73L-73,72Z" fill="rgb(0,128,255)" stroke="rgb(0,128,255)" stroke-width="1.51"/><path d="M62,-82L-60,-73L-20,-69Z" fill="rgb(0,128,255)" stroke="rgb(0,128,255)" stroke-width="1.51"/><path d="M241,-28L190,-58L183,-34Z" fill="rgb(0,85,168)" stroke="rgb(0,85,168)" stroke-width="1.51"/><path d="M184,118L229,86L211,65Z" fill="rgb(0,58,114)" stroke="rgb(0,58,114)" stroke-width="1.51"/><path d="M260,120L229,86L184,118Z" fill="rgb(0,49,98)" stroke="rgb(0,49,98)" stroke-width="1.51"/><path d="M-15,211L45,236L36,195Z" fill="rgb(0,73,145)" stroke="rgb(0,73,145)" stroke-width="1.51"/><path d="M183,-34L190,-58L154,-58Z" fill="rgb(0,91,180)" stroke="rgb(0,91,180)" stroke-width="1.51"/><path d="M154,-58L190,-58L78,-77Z" fill="rgb(0,98,194)" stroke="rgb(0,98,194)" stroke-width="1.51"/><path d="M248,37L191,38L211,65Z" fill="rgb(0,68,135)" stroke="rgb(0,68,135)" stroke-width="1.51"/><path d="M155,164L208,177L184,118Z" fill="rgb(0,44,88)" stroke="rgb(0,44,88)" stroke-width="1.51"/><path d="M45,236L108,243L86,173Z" fill="rgb(0,62,123)" stroke="rgb(0,62,123)" stroke-width="1.51"/><path d="M146,247L208,177L155,164Z" fill="rgb(0,45,89)" stroke="rgb(0,45,89)" stroke-width="1.51"/><path d="M287,91L248,37L229,86Z" fill="rgb(0,57,112)" stroke="rgb(0,57,112)" stroke-width="1.51"/><path d="M229,86L248,37L211,65Z" fill="rgb(0,61,121)" stroke="rgb(0,61,121)" stroke-width="1.51"/><path d="M-73,72L-67,222L-44,161Z" fill="rgb(0,80,159)" stroke="rgb(0,80,159)" stroke-width="1.51"/><path d="M-44,161L-67,222L-15,211Z" fill="rgb(0,77,154)" stroke="rgb(0,77,154)" stroke-width="1.51"/><path d="M-15,211L-67,222L45,236Z" fill="rgb(0,77,154)" stroke="rgb(0,77,154)" stroke-width="1.51"/><path d="M248,37L241,-28L191,38Z" fill="rgb(0,76,149)" stroke="rgb(0,76,149)" stroke-width="1.51"/><path d="M108,243L146,247L155,164Z" fill="rgb(0,51,101)" stroke="rgb(0,51,101)" stroke-width="1.51"/><path d="M208,177L260,120L184,118Z" fill="rgb(0,42,83)" stroke="rgb(0,42,83)" stroke-width="1.51"/><path d="M248,37L295,19L241,-28Z" fill="rgb(0,75,148)" stroke="rgb(0,75,148)" stroke-width="1.51"/><path d="M241,188L260,120L208,177Z" fill="rgb(0,32,65)" stroke="rgb(0,32,65)" stroke-width="1.51"/><path d="M241,-28L237,-58L190,-58Z" fill="rgb(0,81,161)" stroke="rgb(0,81,161)" stroke-width="1.51"/><path d="M190,-58L283,-84L78,-77Z" fill="rgb(0,89,176)" stroke="rgb(0,89,176)" stroke-width="1.51"/><path d="M211,241L241,188L208,177Z" fill="rgb(0,35,71)" stroke="rgb(0,35,71)" stroke-width="1.51"/><path d="M291,170L278,123L260,120Z" fill="rgb(0,38,76)" stroke="rgb(0,38,76)" stroke-width="1.51"/><path d="M260,120L287,91L229,86Z" fill="rgb(0,49,96)" stroke="rgb(0,49,96)" stroke-width="1.51"/><path d="M241,-28L297,-26L237,-58Z" fill="rgb(0,77,154)" stroke="rgb(0,77,154)" stroke-width="1.51"/><path d="M278,123L287,91L260,120Z" fill="rgb(0,45,90)" stroke="rgb(0,45,90)" stroke-width="1.51"/><path d="M146,247L211,241L208,177Z" fill="rgb(0,41,82)" stroke="rgb(0,41,82)" stroke-width="1.51"/><path d="M241,188L291,170L260,120Z" fill="rgb(0,32,64)" stroke="rgb(0,32,64)" stroke-width="1.51"/><path d="M287,91L295,19L248,37Z" fill="rgb(0,63,125)" stroke="rgb(0,63,125)" stroke-width="1.51"/><path d="M295,19L297,-26L241,-28Z" fill="rgb(0,77,154)" stroke="rgb(0,77,154)" stroke-width="1.51"/><path d="M146,247L231,247L211,241Z" fill="rgb(0,40,79)" stroke="rgb(0,40,79)" stroke-width="1.51"/><path d="M211,241L231,247L241,188Z" fill="rgb(0,34,68)" stroke="rgb(0,34,68)" stroke-width="1.51"/><path d="M287,91L291,170L295,19Z" fill="rgb(0,50,100)" stroke="rgb(0,50,100)" stroke-width="1.51"/><path d="M295,19L294,237L297,-26Z" fill="rgb(0,55,109)" stroke="rgb(0,55,109)" stroke-width="1.51"/><path d="M278,123L291,170L287,91Z" fill="rgb(0,40,81)" stroke="rgb(0,40,81)" stroke-width="1.51"/><path d="M294,237L291,170L241,188Z" fill="rgb(0,32,64)" stroke="rgb(0,32,64)" stroke-width="1.51"/><path d="M297,-26L283,-84L237,-58Z" fill="rgb(0,77,154)" stroke="rgb(0,77,154)" stroke-width="1.51"/><path d="M237,-58L283,-84L190,-58Z" fill="rgb(0,78,155)" stroke="rgb(0,78,155)" stroke-width="1.51"/><path d="M291,170L294,237L295,19Z" fill="rgb(0,37,73)" stroke="rgb(0,37,73)" stroke-width="1.51"/><path d="M231,247L294,237L241,188Z" fill="rgb(0,32,64)" stroke="rgb(0,32,64)" stroke-width="1.51"/></svg>