<svg xmlns="http://www.w3.org/2000/svg" width="240" height="160"><path d="M134,65L149,47L86,28Z" fill="rgb(173,87,7)" stroke="rgb(173,87,7)" stroke-width="1.51"/><path d="M86,28L79,68L134,65Z" fill="rgb(178,90,7)" stroke="rgb(178,90,7)" stroke-width="1.51"/><path d="M141,-30L89,-21L86,28Z" fill="rgb(210,105,5)" stroke="rgb(210,105,5)" stroke-width="1.51"/><path d="M86,28L46,46L79,68Z" fill="rgb(194,98,6)" stroke="rgb(194,98,6)" stroke-width="1.51"/><path d="M149,47L141,-30L86,28Z" fill="rgb(191,96,6)" stroke="rgb(191,96,6)" stroke-width="1.51"/><path d="M48,-2L46,46L86,28Z" fill="rgb(213,107,5)" stroke="rgb(213,107,5)" stroke-width="1.51"/><path d="M89,-21L48,-2L86,28Z" fill="rgb(222,111,4)" stroke="rgb(222,111,4)" stroke-width="1.51"/><path d="M149,47L186,-12L141,-30Z" fill="rgb(186,94,6)" stroke="rgb(186,94,6)" stroke-width="1.51"/><path d="M209,77L210,28L149,47Z" fill="rgb(144,73,8)" stroke="rgb(144,73,8)" stroke-width="1.51"/><path d="M149,47L210,28L186,-12Z" fill="rgb(164,83,7)" stroke="rgb(164,83,7)" stroke-width="1.51"/><path d="M89,-21L95,-55L48,-2Z" fill="rgb(222,111,4)" stroke="rgb(222,111,4)" stroke-width="1.51"/><path d="M141,-30L95,-55L89,-21Z" fill="rgb(208,105,5)" stroke="rgb(208,105,5)" stroke-width="1.51"/><path d="M160,-83L95,-55L141,-30Z" fill="rgb(198,100,6)" stroke="rgb(198,100,6)" stroke-width="1.51"/><path d="M46,46L27,75L79,68Z" fill="rgb(192,97,6)" stroke="rgb(192,97,6)" stroke-width="1.51"/><path d="M102,135L139,133L134,65Z" fill="rgb(133,67,8)" stroke="rgb(133,67,8)" stroke-width="1.51"/><path d="M-20,44L27,75L46,46Z" fill="rgb(212,106,5)" stroke="rgb(212,106,5)" stroke-width="1.51"/><path d="M134,65L209,77L149,47Z" fill="rgb(146,74,7)" stroke="rgb(146,74,7)" stroke-width="1.51"/><path d="M102,135L134,65L79,68Z" fill="rgb(154,78,8)" stroke="rgb(154,78,8)" stroke-width="1.51"/><path d="M195,126L209,77L134,65Z" fill="rgb(124,63,8)" stroke="rgb(124,63,8)" stroke-width="1.51"/><path d="M37,144L102,135L79,68Z" fill="rgb(151,77,7)" stroke="rgb(151,77,7)" stroke-width="1.51"/><path d="M209,77L235,46L210,28Z" fill="rgb(132,67,8)" stroke="rgb(132,67,8)" stroke-width="1.51"/><path d="M237,-23L202,-52L186,-12Z" fill="rgb(166,84,7)" stroke="rgb(166,84,7)" stroke-width="1.51"/><path d="M139,133L195,126L134,65Z" fill="rgb(123,62,7)" stroke="rgb(123,62,7)" stroke-width="1.51"/><path d="M209,77L255,67L235,46Z" fill="rgb(119,61,7)" stroke="rgb(119,61,7)" stroke-width="1.51"/><path d="M186,-12L202,-52L141,-30Z" fill="rgb(180,90,7)" stroke="rgb(180,90,7)" stroke-width="1.51"/><path d="M237,-23L186,-12L210,28Z" fill="rgb(165,83,8)" stroke="rgb(165,83,8)" stroke-width="1.51"/><path d="M202,-52L160,-83L141,-30Z" fill="rgb(183,92,6)" stroke="rgb(183,92,6)" stroke-width="1.51"/><path d="M139,133L145,163L195,126Z" fill="rgb(103,52,7)" stroke="rgb(103,52,7)" stroke-width="1.51"/><path d="M102,135L145,163L139,133Z" fill="rgb(113,57,7)" stroke="rgb(113,57,7)" stroke-width="1.51"/><path d="M235,46L237,-23L210,28Z" fill="rgb(149,75,7)" stroke="rgb(149,75,7)" stroke-width="1.51"/><path d="M102,135L103,176L145,163Z" fill="rgb(109,55,7)" stroke="rgb(109,55,7)" stroke-width="1.51"/><path d="M27,75L37,144L79,68Z" fill="rgb(174,87,7)" stroke="rgb(174,87,7)" stroke-width="1.51"/><path d="M48,-2L-13,-5L46,46Z" fill="rgb(234,118,3)" stroke="rgb(234,118,3)" stroke-width="1.51"/><path d="M27,75L6,127L37,144Z" fill="rgb(171,87,7)" stroke="rgb(171,87,7)" stroke-width="1.51"/><path d="M0,-78L-13,-5L48,-2Z" fill="rgb(250,125,1)" stroke="rgb(250,125,1)" stroke-width="1.51"/><path d="M-13,-5L-20,44L46,46Z" fill="rgb(234,118,3)" stroke="rgb(234,118,3)" stroke-width="1.51"/><path d="M37,144L103,176L102,135Z" fill="rgb(127,64,7)" stroke="rgb(127,64,7)" stroke-width="1.51"/><path d="M-20,44L-12,90L27,75Z" fill="rgb(210,106,5)" stroke="rgb(210,106,5)" stroke-width="1.51"/><path d="M235,46L294,-2L237,-23Z" fill="rgb(150,75,7)" stroke="rgb(150,75,7)" stroke-width="1.51"/><path d="M249,142L255,67L209,77Z" fill="rgb(99,50,7)" stroke="rgb(99,50,7)" stroke-width="1.51"/><path d="M-12,90L6,127L27,75Z" fill="rgb(189,95,7)" stroke="rgb(189,95,7)" stroke-width="1.51"/><path d="M95,-55L44,-89L48,-2Z" fill="rgb(228,114,4)" stroke="rgb(228,114,4)" stroke-width="1.51"/><path d="M160,-83L44,-89L95,-55Z" fill="rgb(212,107,5)" stroke="rgb(212,107,5)" stroke-width="1.51"/><path d="M44,-89L0,-78L48,-2Z" fill="rgb(241,121,2)" stroke="rgb(241,121,2)" stroke-width="1.51"/><path d="M190,195L195,126L145,163Z" fill="rgb(86,43,5)" stroke="rgb(86,43,5)" stroke-width="1.51"/><path d="M190,195L249,142L195,126Z" fill="rgb(77,38,4)" stroke="rgb(77,38,4)" stroke-width="1.51"/><path d="M195,126L249,142L209,77Z" fill="rgb(96,48,6)" stroke="rgb(96,48,6)" stroke-width="1.51"/><path d="M160,224L190,195L145,163Z" fill="rgb(90,46,5)" stroke="rgb(90,46,5)" stroke-width="1.51"/><path d="M37,144L50,192L103,176Z" fill="rgb(128,65,8)" stroke="rgb(128,65,8)" stroke-width="1.51"/><path d="M-14,195L50,192L37,144Z" fill="rgb(144,72,8)" stroke="rgb(144,72,8)" stroke-width="1.51"/><path d="M6,127L-14,195L37,144Z" fill="rgb(152,77,7)" stroke="rgb(152,77,7)" stroke-width="1.51"/><path d="M-12,90L-47,142L6,127Z" fill="rgb(178,90,7)" stroke="rgb(178,90,7)" stroke-width="1.51"/><path d="M-20,44L-51,66L-12,90Z" fill="rgb(212,107,5)" stroke="rgb(212,107,5)" stroke-width="1.51"/><path d="M-66,19L-51,66L-20,44Z" fill="rgb(227,114,4)" stroke="rgb(227,114,4)" stroke-width="1.51"/><path d="M-66,19L-20,44L-13,-5Z" fill="rgb(242,121,2)" stroke="rgb(242,121,2)" stroke-width="1.51"/><path d="M160,224L145,163L103,176Z" fill="rgb(101,51,7)" stroke="rgb(101,51,7)" stroke-width="1.51"/><path d="M237,-23L260,-80L202,-52Z" fill="rgb(157,79,7)" stroke="rgb(157,79,7)" stroke-width="1.51"/><path d="M202,-52L260,-80L160,-83Z" fill="rgb(167,84,7)" stroke="rgb(167,84,7)" stroke-width="1.51"/><path d="M255,67L294,-2L235,46Z" fill="rgb(132,66,8)" stroke="rgb(132,66,8)" stroke-width="1.51"/><path d="M311,14L294,-2L255,67Z" fill="rgb(138,70,8)" stroke="rgb(138,70,8)" stroke-width="1.51"/><path d="M290,-59L260,-80L237,-23Z" fill="rgb(154,78,7)" stroke="rgb(154,78,7)" stroke-width="1.51"/><path d="M160,-83L260,-80L44,-89Z" fill="rgb(188,95,7)" stroke="rgb(188,95,7)" stroke-width="1.51"/><path d="M-60,-30L-66,19L-13,-5Z" fill="rgb(255,128,0)" stroke="rgb(255,128,0)" stroke-width="1.51"/><path d="M0,-78L-60,-30L-13,-5Z" fill="rgb(255,128,0)" stroke="rgb(255,128,0)" stroke-width="1.51"/><path d="M190,195L247,187L249,142Z" fill="rgb(68,34,1)" stroke="rgb(68,34,1)" stroke-width="1.51"/><path d="M81,243L160,224L103,176Z" fill="rgb(109,55,7)" stroke="rgb(109,55,7)" stroke-width="1.51"/><path d="M294,-2L290,-59L237,-23Z" fill="rgb(154,78,7)" stroke="rgb(154,78,7)" stroke-width="1.51"/><path d="M310,83L311,14L255,67Z" fill="rgb(122,61,8)" stroke="rgb(122,61,8)" stroke-width="1.51"/><path d="M-51,66L-47,142L-12,90Z" fill="rgb(191,96,7)" stroke="rgb(191,96,7)" stroke-width="1.51"/><path d="M-70,180L-47,142L-51,66Z" fill="rgb(172,87,7)" stroke="rgb(172,87,7)" stroke-width="1.51"/><path d="M311,14L290,-59L294,-2Z" fill="rgb(154,78,7)" stroke="rgb(154,78,7)" stroke-width="1.51"/><path d="M309,111L310,83L255,67Z" fill="rgb(103,52,7)" stroke="rgb(103,52,7)" stroke-width="1.51"/><path d="M231,241L247,187L190,195Z" fill="rgb(70,35,2)" stroke="rgb(70,35,2)" stroke-width="1.51"/><path d="M249,142L309,111L255,67Z" fill="rgb(92,47,6)" stroke="rgb(92,47,6)" stroke-width="1.51"/><path d="M44,-89L-42,-87L0,-78Z" fill="rgb(254,128,0)" stroke="rgb(254,128,0)" stroke-width="1.51"/><path d="M0,-78L-42,-87L-60,-30Z" fill="rgb(255,128,0)" stroke="rgb(255,128,0)" stroke-width="1.51"/><path d="M282,190L309,111L249,142Z" fill="rgb(70,35,2)" stroke="rgb(70,35,2)" stroke-width="1.51"/><path d="M50,192L81,243L103,176Z" fill="rgb(123,62,7)" stroke="rgb(123,62,7)" stroke-width="1.51"/><path d="M-47,142L-14,195L6,127Z" fill="rgb(157,79,8)" stroke="rgb(157,79,8)" stroke-width="1.51"/><path d="M48,244L81,243L50,192Z" fill="rgb(130,66,7)" stroke="rgb(130,66,7)" stroke-width="1.51"/><path d="M81,243L185,243L160,224Z" fill="rgb(99,50,7)" stroke="rgb(99,50,7)" stroke-width="1.51"/><path d="M160,224L185,243L190,195Z" fill="rgb(85,43,5)" stroke="rgb(85,43,5)" stroke-width="1.51"/><path d="M81,243L48,244L185,243Z" fill="rgb(113,57,7)" stroke="rgb(113,57,7)" stroke-width="1.51"/><path d="M-12,225L48,244L50,192Z" fill="rgb(142,72,8)" stroke="rgb(142,72,8)" stroke-width="1.51"/><path d="M294,227L282,190L247,187Z" fill="rgb(64,32,0)" stroke="rgb(64,32,0)" stroke-width="1.51"/><path d="M247,187L282,190L249,142Z" fill="rgb(64,32,0)" stroke="rgb(64,32,0)" stroke-width="1.51"/><path d="M-14,195L-12,225L50,192Z" fill="rgb(150,76,8)" stroke="rgb(150,76,8)" stroke-width="1.51"/><path d="M-38,247L-12,225L-14,195Z" fill="rgb(154,78,7)" stroke="rgb(154,78,7)" stroke-width="1.51"/><path d="M185,243L231,241L190,195Z" fill="rgb(77,39,3)" stroke="rgb(77,39,3)" stroke-width="1.51"/><path d="M-47,142L-70,180L-14,195Z" fill="rgb(154,78,7)" stroke="rgb(154,78,7)" stroke-width="1.51"/><path d="M-66,19L-70,180L-51,66Z" fill="rgb(198,100,6)" stroke="rgb(198,100,6)" stroke-width="1.51"/><path d="M231,241L294,227L247,187Z" fill="rgb(64,32,0)" stroke="rgb(64,32,0)" stroke-width="1.51"/><path d="M282,190L294,227L309,111Z" fill="rgb(64,32,0)" stroke="rgb(64,32,0)" stroke-width="1.51"/><path d="M-12,225L-38,247L48,244Z" fill="rgb(154,78,7)" stroke="rgb(154,78,7)" stroke-width="1.51"/><path d="M48,244L-38,247L185,243Z" fill="rgb(128,65,8)" stroke="rgb(128,65,8)" stroke-width="1.51"/><path d="M-70,180L-38,247L-14,195Z" fill="rgb(154,78,7)" stroke="rgb(154,78,7)" stroke-width="1.51"/></svg>