<svg xmlns="http://www.w3.org/2000/svg" width="240" height="160"><path d="M153,89L129,119L190,134Z" fill="rgb(60,119,2)" stroke="rgb(60,119,2)" stroke-width="1.51"/><path d="M129,119L182,162L190,134Z" fill="rgb(51,102,2)" stroke="rgb(51,102,2)" stroke-width="1.51"/><path d="M190,134L207,96L153,89Z" fill="rgb(57,114,2)" stroke="rgb(57,114,2)" stroke-width="1.51"/><path d="M232,91L207,96L240,144Z" fill="rgb(48,96,2)" stroke="rgb(48,96,2)" stroke-width="1.51"/><path d="M129,119L142,196L182,162Z" fill="rgb(48,96,2)" stroke="rgb(48,96,2)" stroke-width="1.51"/><path d="M83,83L90,124L129,119Z" fill="rgb(72,144,2)" stroke="rgb(72,144,2)" stroke-width="1.51"/><path d="M200,25L132,34L153,89Z" fill="rgb(78,156,2)" stroke="rgb(78,156,2)" stroke-width="1.51"/><path d="M240,144L207,96L190,134Z" fill="rgb(46,92,2)" stroke="rgb(46,92,2)" stroke-width="1.51"/><path d="M90,186L142,196L129,119Z" fill="rgb(54,107,2)" stroke="rgb(54,107,2)" stroke-width="1.51"/><path d="M182,162L240,144L190,134Z" fill="rgb(42,84,1)" stroke="rgb(42,84,1)" stroke-width="1.51"/><path d="M232,187L240,144L182,162Z" fill="rgb(36,71,1)" stroke="rgb(36,71,1)" stroke-width="1.51"/><path d="M153,89L83,83L129,119Z" fill="rgb(72,143,2)" stroke="rgb(72,143,2)" stroke-width="1.51"/><path d="M132,34L83,83L153,89Z" fill="rgb(80,160,2)" stroke="rgb(80,160,2)" stroke-width="1.51"/><path d="M200,25L153,89L207,96Z" fill="rgb(67,133,2)" stroke="rgb(67,133,2)" stroke-width="1.51"/><path d="M142,196L156,214L182,162Z" fill="rgb(47,92,2)" stroke="rgb(47,92,2)" stroke-width="1.51"/><path d="M90,124L90,186L129,119Z" fill="rgb(62,124,2)" stroke="rgb(62,124,2)" stroke-width="1.51"/><path d="M142,196L80,224L156,214Z" fill="rgb(53,105,2)" stroke="rgb(53,105,2)" stroke-width="1.51"/><path d="M43,124L90,186L90,124Z" fill="rgb(67,133,2)" stroke="rgb(67,133,2)" stroke-width="1.51"/><path d="M156,214L232,187L182,162Z" fill="rgb(41,82,2)" stroke="rgb(41,82,2)" stroke-width="1.51"/><path d="M236,45L200,25L207,96Z" fill="rgb(66,131,3)" stroke="rgb(66,131,3)" stroke-width="1.51"/><path d="M294,91L236,45L232,91Z" fill="rgb(55,110,2)" stroke="rgb(55,110,2)" stroke-width="1.51"/><path d="M232,91L236,45L207,96Z" fill="rgb(57,114,2)" stroke="rgb(57,114,2)" stroke-width="1.51"/><path d="M132,34L92,35L83,83Z" fill="rgb(90,179,2)" stroke="rgb(90,179,2)" stroke-width="1.51"/><path d="M102,-20L92,35L132,34Z" fill="rgb(99,198,2)" stroke="rgb(99,198,2)" stroke-width="1.51"/><path d="M36,98L43,124L83,83Z" fill="rgb(84,167,2)" stroke="rgb(84,167,2)" stroke-width="1.51"/><path d="M83,83L43,124L90,124Z" fill="rgb(78,155,2)" stroke="rgb(78,155,2)" stroke-width="1.51"/><path d="M11,67L36,98L83,83Z" fill="rgb(92,183,2)" stroke="rgb(92,183,2)" stroke-width="1.51"/><path d="M156,214L211,238L232,187Z" fill="rgb(39,78,2)" stroke="rgb(39,78,2)" stroke-width="1.51"/><path d="M80,224L211,238L156,214Z" fill="rgb(48,96,2)" stroke="rgb(48,96,2)" stroke-width="1.51"/><path d="M185,-19L141,-8L200,25Z" fill="rgb(91,180,2)" stroke="rgb(91,180,2)" stroke-width="1.51"/><path d="M200,25L141,-8L132,34Z" fill="rgb(89,177,2)" stroke="rgb(89,177,2)" stroke-width="1.51"/><path d="M240,144L294,91L232,91Z" fill="rgb(46,91,2)" stroke="rgb(46,91,2)" stroke-width="1.51"/><path d="M232,187L280,173L240,144Z" fill="rgb(32,64,0)" stroke="rgb(32,64,0)" stroke-width="1.51"/><path d="M255,244L280,173L232,187Z" fill="rgb(32,64,0)" stroke="rgb(32,64,0)" stroke-width="1.51"/><path d="M90,186L80,224L142,196Z" fill="rgb(57,113,2)" stroke="rgb(57,113,2)" stroke-width="1.51"/><path d="M47,222L80,224L90,186Z" fill="rgb(63,125,2)" stroke="rgb(63,125,2)" stroke-width="1.51"/><path d="M300,136L294,91L240,144Z" fill="rgb(42,83,2)" stroke="rgb(42,83,2)" stroke-width="1.51"/><path d="M280,173L300,136L240,144Z" fill="rgb(34,68,1)" stroke="rgb(34,68,1)" stroke-width="1.51"/><path d="M43,124L30,171L90,186Z" fill="rgb(67,132,2)" stroke="rgb(67,132,2)" stroke-width="1.51"/><path d="M1,115L30,171L43,124Z" fill="rgb(79,158,3)" stroke="rgb(79,158,3)" stroke-width="1.51"/><path d="M238,-11L185,-19L200,25Z" fill="rgb(84,167,3)" stroke="rgb(84,167,3)" stroke-width="1.51"/><path d="M238,-11L200,25L236,45Z" fill="rgb(74,148,2)" stroke="rgb(74,148,2)" stroke-width="1.51"/><path d="M298,32L238,-11L236,45Z" fill="rgb(71,141,2)" stroke="rgb(71,141,2)" stroke-width="1.51"/><path d="M141,-8L102,-20L132,34Z" fill="rgb(100,200,2)" stroke="rgb(100,200,2)" stroke-width="1.51"/><path d="M92,35L38,23L83,83Z" fill="rgb(98,194,2)" stroke="rgb(98,194,2)" stroke-width="1.51"/><path d="M146,-56L102,-20L141,-8Z" fill="rgb(100,199,2)" stroke="rgb(100,199,2)" stroke-width="1.51"/><path d="M30,171L47,222L90,186Z" fill="rgb(66,132,2)" stroke="rgb(66,132,2)" stroke-width="1.51"/><path d="M80,224L-10,238L211,238Z" fill="rgb(59,117,2)" stroke="rgb(59,117,2)" stroke-width="1.51"/><path d="M211,238L255,244L232,187Z" fill="rgb(33,66,1)" stroke="rgb(33,66,1)" stroke-width="1.51"/><path d="M280,173L312,212L300,136Z" fill="rgb(32,64,0)" stroke="rgb(32,64,0)" stroke-width="1.51"/><path d="M-10,238L255,244L211,238Z" fill="rgb(48,96,2)" stroke="rgb(48,96,2)" stroke-width="1.51"/><path d="M36,98L1,115L43,124Z" fill="rgb(86,172,2)" stroke="rgb(86,172,2)" stroke-width="1.51"/><path d="M52,-12L38,23L92,35Z" fill="rgb(110,219,2)" stroke="rgb(110,219,2)" stroke-width="1.51"/><path d="M38,23L11,67L83,83Z" fill="rgb(100,199,2)" stroke="rgb(100,199,2)" stroke-width="1.51"/><path d="M11,67L1,115L36,98Z" fill="rgb(94,188,2)" stroke="rgb(94,188,2)" stroke-width="1.51"/><path d="M30,171L10,195L47,222Z" fill="rgb(71,142,2)" stroke="rgb(71,142,2)" stroke-width="1.51"/><path d="M294,91L298,32L236,45Z" fill="rgb(61,121,2)" stroke="rgb(61,121,2)" stroke-width="1.51"/><path d="M300,136L298,32L294,91Z" fill="rgb(52,104,2)" stroke="rgb(52,104,2)" stroke-width="1.51"/><path d="M-43,141L10,195L30,171Z" fill="rgb(77,154,2)" stroke="rgb(77,154,2)" stroke-width="1.51"/><path d="M102,-20L52,-12L92,35Z" fill="rgb(110,219,1)" stroke="rgb(110,219,1)" stroke-width="1.51"/><path d="M38,23L1,26L11,67Z" fill="rgb(112,222,2)" stroke="rgb(112,222,2)" stroke-width="1.51"/><path d="M102,-20L105,-71L52,-12Z" fill="rgb(109,217,1)" stroke="rgb(109,217,1)" stroke-width="1.51"/><path d="M185,-19L146,-56L141,-8Z" fill="rgb(95,188,2)" stroke="rgb(95,188,2)" stroke-width="1.51"/><path d="M201,-70L146,-56L185,-19Z" fill="rgb(90,179,2)" stroke="rgb(90,179,2)" stroke-width="1.51"/><path d="M300,136L305,-4L298,32Z" fill="rgb(61,122,2)" stroke="rgb(61,122,2)" stroke-width="1.51"/><path d="M255,244L312,212L280,173Z" fill="rgb(32,64,0)" stroke="rgb(32,64,0)" stroke-width="1.51"/><path d="M-2,-30L1,26L38,23Z" fill="rgb(124,245,0)" stroke="rgb(124,245,0)" stroke-width="1.51"/><path d="M-67,95L-43,141L1,115Z" fill="rgb(91,180,2)" stroke="rgb(91,180,2)" stroke-width="1.51"/><path d="M298,32L305,-4L238,-11Z" fill="rgb(76,151,2)" stroke="rgb(76,151,2)" stroke-width="1.51"/><path d="M238,-11L201,-70L185,-19Z" fill="rgb(84,167,3)" stroke="rgb(84,167,3)" stroke-width="1.51"/><path d="M312,212L305,-4L300,136Z" fill="rgb(44,88,2)" stroke="rgb(44,88,2)" stroke-width="1.51"/><path d="M262,-84L201,-70L238,-11Z" fill="rgb(79,156,2)" stroke="rgb(79,156,2)" stroke-width="1.51"/><path d="M52,-12L-2,-30L38,23Z" fill="rgb(121,242,1)" stroke="rgb(121,242,1)" stroke-width="1.51"/><path d="M146,-56L105,-71L102,-20Z" fill="rgb(102,204,1)" stroke="rgb(102,204,1)" stroke-width="1.51"/><path d="M201,-70L105,-71L146,-56Z" fill="rgb(96,191,2)" stroke="rgb(96,191,2)" stroke-width="1.51"/><path d="M-67,95L1,115L11,67Z" fill="rgb(98,195,2)" stroke="rgb(98,195,2)" stroke-width="1.51"/><path d="M1,115L-43,141L30,171Z" fill="rgb(83,165,3)" stroke="rgb(83,165,3)" stroke-width="1.51"/><path d="M-40,194L-10,238L10,195Z" fill="rgb(77,154,2)" stroke="rgb(77,154,2)" stroke-width="1.51"/><path d="M10,195L-10,238L47,222Z" fill="rgb(74,147,2)" stroke="rgb(74,147,2)" stroke-width="1.51"/><path d="M47,222L-10,238L80,224Z" fill="rgb(70,138,2)" stroke="rgb(70,138,2)" stroke-width="1.51"/><path d="M-43,141L-40,194L10,195Z" fill="rgb(77,154,2)" stroke="rgb(77,154,2)" stroke-width="1.51"/><path d="M-63,28L-67,95L11,67Z" fill="rgb(108,214,1)" stroke="rgb(108,214,1)" stroke-width="1.51"/><path d="M52,-89L-2,-30L52,-12Z" fill="rgb(120,240,1)" stroke="rgb(120,240,1)" stroke-width="1.51"/><path d="M201,-70L52,-89L105,-71Z" fill="rgb(102,203,2)" stroke="rgb(102,203,2)" stroke-width="1.51"/><path d="M305,-4L262,-84L238,-11Z" fill="rgb(77,154,2)" stroke="rgb(77,154,2)" stroke-width="1.51"/><path d="M-63,28L11,67L1,26Z" fill="rgb(115,229,1)" stroke="rgb(115,229,1)" stroke-width="1.51"/><path d="M-43,141L-57,219L-40,194Z" fill="rgb(77,154,2)" stroke="rgb(77,154,2)" stroke-width="1.51"/><path d="M105,-71L52,-89L52,-12Z" fill="rgb(113,225,1)" stroke="rgb(113,225,1)" stroke-width="1.51"/><path d="M262,-84L52,-89L201,-70Z" fill="rgb(91,182,2)" stroke="rgb(91,182,2)" stroke-width="1.51"/><path d="M-67,95L-57,219L-43,141Z" fill="rgb(80,159,2)" stroke="rgb(80,159,2)" stroke-width="1.51"/><path d="M-40,194L-57,219L-10,238Z" fill="rgb(77,154,2)" stroke="rgb(77,154,2)" stroke-width="1.51"/><path d="M-38,-35L1,26L-2,-30Z" fill="rgb(128,255,0)" stroke="rgb(128,255,0)" stroke-width="1.51"/><path d="M-38,-35L-63,28L1,26Z" fill="rgb(126,251,0)" stroke="rgb(126,251,0)" stroke-width="1.51"/><path d="M-7,-76L-38,-35L-2,-30Z" fill="rgb(128,255,0)" stroke="rgb(128,255,0)" stroke-width="1.51"/><path d="M262,-84L309,-87L52,-89Z" fill="rgb(84,167,3)" stroke="rgb(84,167,3)" stroke-width="1.51"/><path d="M305,-4L309,-87L262,-84Z" fill="rgb(77,154,2)" stroke="rgb(77,154,2)" stroke-width="1.51"/><path d="M312,212L309,-87L305,-4Z" fill="rgb(65,130,2)" stroke="rgb(65,130,2)" stroke-width="1.51"/><path d="M52,-89L-7,-76L-2,-30Z" fill="rgb(125,248,0)" stroke="rgb(125,248,0)" stroke-width="1.51"/><path d="M-38,-35L-53,-83L-63,28Z" fill="rgb(128,255,0)" stroke="rgb(128,255,0)" stroke-width="1.51"/><path d="M-7,-76L-53,-83L-38,-35Z" fill="rgb(128,255,0)" stroke="rgb(128,255,0)" stroke-width="1.51"/><path d="M52,-89L-53,-83L-7,-76Z" fill="rgb(128,255,0)" stroke="rgb(128,255,0)" stroke-width="1.51"/></svg>