<?xml version="1.0" encoding="UTF-8" standalone="no"?>
<svg
   xmlns:dc="http://purl.org/dc/elements/1.1/"
   xmlns:cc="http://creativecommons.org/ns#"
   xmlns:rdf="http://www.w3.org/1999/02/22-rdf-syntax-ns#"
   xmlns:svg="http://www.w3.org/2000/svg"
   xmlns="http://www.w3.org/2000/svg"
   xmlns:xlink="http://www.w3.org/1999/xlink"
   xmlns:sodipodi="http://sodipodi.sourceforge.net/DTD/sodipodi-0.dtd"
   xmlns:inkscape="http://www.inkscape.org/namespaces/inkscape"
   width="70mm"
   height="10mm"
   viewBox="0 0 70 10"
   version="1.1"
   id="svg8"
   inkscape:version="1.0.2-2 (e86c870879, 2021-01-15)"
   sodipodi:docname="simposium_logo.svg">
  <defs
     id="defs2">
    <linearGradient
       inkscape:collect="always"
       id="linearGradient1117">
      <stop
         style="stop-color:#eaeaea;stop-opacity:1"
         offset="0"
         id="stop1113" />
      <stop
         style="stop-color:#ffffff;stop-opacity:1"
         offset="0.49522102"
         id="stop1119" />
      <stop
         style="stop-color:#787878;stop-opacity:1"
         offset="1"
         id="stop1115" />
    </linearGradient>
    <linearGradient
       inkscape:collect="always"
       id="linearGradient1100">
      <stop
         style="stop-color:#ffffff;stop-opacity:1;"
         offset="0"
         id="stop1096" />
      <stop
         style="stop-color:#717171;stop-opacity:1"
         offset="1"
         id="stop1098" />
    </linearGradient>
    <linearGradient
       inkscape:collect="always"
       xlink:href="#linearGradient1100"
       id="linearGradient1102"
       x1="90.563797"
       y1="40.417603"
       x2="93.458466"
       y2="40.417603"
       gradientUnits="userSpaceOnUse"
       gradientTransform="translate(-23.8125,-23.547917)" />
    <linearGradient
       inkscape:collect="always"
       xlink:href="#linearGradient1117"
       id="linearGradient1111"
       x1="88.04512"
       y1="42.865467"
       x2="93.000061"
       y2="42.879166"
       gradientUnits="userSpaceOnUse"
       gradientTransform="translate(-23.8125,-23.547917)" />
  </defs>
  <sodipodi:namedview
     id="base"
     pagecolor="#202225"
     bordercolor="#666666"
     borderopacity="1.0"
     inkscape:pageopacity="1"
     inkscape:pageshadow="2"
     inkscape:zoom="2.8284271"
     inkscape:cx="129.76355"
     inkscape:cy="-32.731531"
     inkscape:document-units="mm"
     inkscape:current-layer="g1147"
     inkscape:document-rotation="0"
     showgrid="false"
     inkscape:window-width="1920"
     inkscape:window-height="1017"
     inkscape:window-x="-8"
     inkscape:window-y="1072"
     inkscape:window-maximized="1"
     inkscape:snap-global="false" />
  <metadata
     id="metadata5">
    <rdf:RDF>
      <cc:Work
         rdf:about="">
        <dc:format>image/svg+xml</dc:format>
        <dc:type
           rdf:resource="http://purl.org/dc/dcmitype/StillImage" />
        <dc:title></dc:title>
      </cc:Work>
    </rdf:RDF>
  </metadata>
  <g
     inkscape:label="Vrstva 1"
     inkscape:groupmode="layer"
     id="layer1">
    <g
       id="g1147"
       transform="matrix(1,0,0,0.98948082,-0.17811667,-2.3989673)">
      <path
         id="path949-7"
         style="font-style:normal;font-variant:normal;font-weight:bold;font-stretch:normal;font-size:12.058px;line-height:1.25;font-family:Arial;-inkscape-font-specification:'Arial Bold';letter-spacing:0.398979px;word-spacing:3.96875px;fill:#000000;fill-opacity:0.487654;stroke:none;stroke-width:0.264583"
         d="m 5.7545206,3.4799542 c -0.663347,0 -1.230172,0.100117 -1.701188,0.300299 -0.46709,0.200181 -0.826245,0.492208 -1.077453,0.876871 -0.247284,0.380738 -0.371037,0.790825 -0.371037,1.23044 0,0.682973 0.264891,1.26209 0.794783,1.73703 0.376813,0.337561 1.032107,0.622309 1.966289,0.853892 0.726148,0.180556 1.191673,0.305896 1.39578,0.376548 0.29831,0.105979 0.50598,0.231841 0.623734,0.37707 0.12168,0.141305 0.182418,0.313974 0.182418,0.51808 0,0.3179358 -0.142896,0.5967028 -0.429431,0.8361358 -0.282609,0.235507 -0.704779,0.353046 -1.266073,0.353046 -0.529892,0 -0.951545,-0.13314 -1.265555,-0.40005 -0.310086,-0.266908 -0.516514,-0.6853198 -0.618567,-1.2544638 l -1.695504,0.165034 c 0.113829,0.9655818 0.463154,1.7017658 1.047998,2.2081068 0.584844,0.502417 1.422872,0.753618 2.514058,0.753618 0.7497,0 1.375505,-0.104279 1.877922,-0.31231 0.502417,-0.211957 0.891061,-0.533891 1.16582,-0.965655 0.274759,-0.431765 0.412378,-0.89464 0.412378,-1.3892058 0,-0.545594 -0.115683,-1.00301 -0.347265,-1.371972 -0.227658,-0.372888 -0.545734,-0.665437 -0.953947,-0.877394 -0.404289,-0.215882 -1.03061,-0.423916 -1.878439,-0.624098 -0.847828,-0.200182 -1.381645,-0.392614 -1.601452,-0.577095 -0.172706,-0.14523 -0.258899,-0.319718 -0.258899,-0.523825 0,-0.223733 0.0925,-0.402383 0.276986,-0.535837 0.286534,-0.208032 0.682733,-0.311788 1.189074,-0.311788 0.490642,0 0.857867,0.09777 1.101225,0.294031 0.247283,0.192332 0.40808,0.510626 0.482658,0.954166 l 1.742529,-0.07677 c -0.02748,-0.792876 -0.315545,-1.426601 -0.865063,-1.901542 -0.545593,-0.47494 -1.360443,-0.71236 -2.443779,-0.71236 z m 5.3681484,0.146755 v 8.6313588 h 1.743046 V 3.6267092 Z m 3.778581,0 v 8.6313588 h 1.619022 V 5.4640132 l 1.707906,6.7940548 h 1.677934 l 1.713074,-6.7940548 v 6.7940548 h 1.619022 V 3.6267092 h -2.613793 l -1.548743,5.887937 -1.565796,-5.887937 z m 10.467061,0 V 12.258068 H 27.11084 V 9.0023112 h 1.136365 c 0.78895,0 1.391578,-0.04135 1.807641,-0.123775 0.30616,-0.06673 0.606335,-0.201688 0.900721,-0.405795 0.29831,-0.208032 0.544057,-0.49278 0.736388,-0.853892 0.192331,-0.361112 0.288356,-0.806565 0.288356,-1.336458 0,-0.686898 -0.16711,-1.246251 -0.500745,-1.678015 -0.333637,-0.43569 -0.747736,-0.718618 -1.2423,-0.848147 -0.321863,-0.08635 -1.012442,-0.12952 -2.072228,-0.12952 z m 1.742529,1.460233 h 0.842325 c 0.628023,0 1.045639,0.01976 1.25367,0.05902 0.28261,0.05103 0.516253,0.178709 0.700733,0.382816 0.184481,0.204106 0.276987,0.463109 0.276987,0.77712 0,0.255133 -0.06705,0.47877 -0.200506,0.671101 -0.12953,0.192332 -0.309986,0.333796 -0.541568,0.424074 -0.231582,0.09028 -0.690798,0.135265 -1.377693,0.135265 H 27.11084 Z" />
      <path
         id="path949"
         style="font-style:normal;font-variant:normal;font-weight:bold;font-stretch:normal;font-size:12.058px;line-height:1.25;font-family:Arial;-inkscape-font-specification:'Arial Bold';letter-spacing:0.398979px;word-spacing:3.96875px;fill:#a40000;fill-opacity:1;stroke:none;stroke-width:0.994725"
         d="M 18.826172 2.1972656 C 16.319034 2.1972656 14.176701 2.5716791 12.396484 3.3203125 C 10.631103 4.0689456 9.2736676 5.161059 8.3242188 6.5996094 C 7.3896051 8.0234804 6.921875 9.5571146 6.921875 11.201172 C 6.921875 13.755333 7.9230378 15.921097 9.9257812 17.697266 C 11.349955 18.959667 13.826659 20.024559 17.357422 20.890625 C 20.101922 21.565863 21.861385 22.034605 22.632812 22.298828 C 23.760283 22.695163 24.54518 23.165858 24.990234 23.708984 C 25.450124 24.237431 25.679688 24.883172 25.679688 25.646484 C 25.679688 26.83549 25.139606 27.878013 24.056641 28.773438 C 22.988511 29.654183 21.392909 30.09375 19.271484 30.09375 C 17.268741 30.09375 15.675092 29.595836 14.488281 28.597656 C 13.316305 27.599479 12.536104 26.034717 12.150391 23.90625 L 5.7421875 24.523438 C 6.1724066 28.134493 7.4926895 30.88765 9.703125 32.78125 C 11.91356 34.660173 15.08091 35.599609 19.205078 35.599609 C 22.038589 35.599609 24.403837 35.20963 26.302734 34.431641 C 28.201632 33.638969 29.670525 32.435011 30.708984 30.820312 C 31.747444 29.205612 32.267578 27.474564 32.267578 25.625 C 32.267578 23.584607 31.830351 21.873974 30.955078 20.494141 C 30.09464 19.099628 28.892464 18.005561 27.349609 17.212891 C 25.82159 16.405541 23.45439 15.62754 20.25 14.878906 C 17.04561 14.130273 15.028033 13.41062 14.197266 12.720703 C 13.54452 12.177577 13.21875 11.525031 13.21875 10.761719 C 13.21875 9.925011 13.568373 9.2569013 14.265625 8.7578125 C 15.34859 7.9798209 16.846033 7.5917969 18.759766 7.5917969 C 20.614158 7.5917969 22.002096 7.9574519 22.921875 8.6914062 C 23.856489 9.4106815 24.464226 10.601029 24.746094 12.259766 L 31.332031 11.972656 C 31.228185 9.0074814 30.139419 6.6374975 28.0625 4.8613281 C 26.000416 3.085159 22.92067 2.1972656 18.826172 2.1972656 z M 39.115234 2.7460938 L 39.115234 35.025391 L 45.703125 35.025391 L 45.703125 2.7460938 L 39.115234 2.7460938 z M 53.396484 2.7460938 L 53.396484 35.025391 L 59.515625 35.025391 L 59.515625 9.6171875 L 65.970703 35.025391 L 72.3125 35.025391 L 78.787109 9.6171875 L 78.787109 35.025391 L 84.90625 35.025391 L 84.90625 2.7460938 L 75.027344 2.7460938 L 69.173828 24.765625 L 63.255859 2.7460938 L 53.396484 2.7460938 z M 92.957031 2.7460938 L 92.957031 35.025391 L 99.542969 35.025391 L 99.542969 22.849609 L 103.83789 22.849609 C 106.81975 22.849609 109.0974 22.69498 110.66992 22.386719 C 111.82706 22.137174 112.96158 21.632453 114.07422 20.869141 C 115.20169 20.091149 116.1305 19.026257 116.85742 17.675781 C 117.58434 16.325306 117.94727 14.659411 117.94727 12.677734 C 117.94727 10.108895 117.31567 8.0170431 116.05469 6.4023438 C 114.7937 4.7729653 113.2286 3.7148784 111.35938 3.2304688 C 110.14289 2.9075289 107.53283 2.7460938 103.52734 2.7460938 L 92.957031 2.7460938 z M 99.542969 8.2070312 L 102.72656 8.2070312 C 105.10019 8.2070312 106.67858 8.2809434 107.46484 8.4277344 C 108.53297 8.6185624 109.41603 9.0960628 110.11328 9.859375 C 110.81053 10.622687 111.16016 11.591298 111.16016 12.765625 C 111.16016 13.719765 110.90674 14.556116 110.40234 15.275391 C 109.91278 15.994666 109.23074 16.523709 108.35547 16.861328 C 107.4802 17.198947 105.74458 17.367188 103.14844 17.367188 L 99.542969 17.367188 L 99.542969 8.2070312 z "
         transform="matrix(0.26458333,0,0,0.26739612,0.17811667,2.4244707)" />
      <path
         id="path957-3"
         style="font-style:normal;font-variant:normal;font-weight:bold;font-stretch:normal;font-size:12.058px;line-height:1.25;font-family:Arial;-inkscape-font-specification:'Arial Bold';letter-spacing:0.398979px;word-spacing:3.96875px;fill:#0068ff;fill-opacity:0.90123457;stroke:none;stroke-width:0.264583"
         d="m 48.633618,3.1587633 v 1.058617 h -0.09922 v 0.472643 h 1.654678 v -0.472643 h 0.09922 v -1.058617 z m -12.031824,2.237353 c -0.61232,0 -1.167556,0.135484 -1.666049,0.406317 -0.08276,0.04532 -0.14364,0.114458 -0.220142,0.1666 h 0.231511 c -0.237387,0.1618 -0.443558,0.357502 -0.620633,0.584929 h -0.529167 c -0.106878,0.137269 -0.222594,0.265012 -0.307475,0.426163 -0.132969,0.252452 -0.231537,0.50938 -0.299207,0.770331 h 0.396875 c -0.07016,0.270552 -0.106971,0.545445 -0.106971,0.825167 0,0.01394 0.004,0.02479 0.0041,0.03865 h 0.132291 c 0.0011,0.154187 0.02965,0.28622 0.04341,0.43034 h -0.23151 c 0.02469,0.258559 0.06336,0.506042 0.128674,0.732206 h 0.198438 c 0.06362,0.2203 0.12777,0.4402707 0.22996,0.6298427 0.270833,0.498491 0.665271,0.877375 1.183391,1.136433 0.522039,0.25906 1.069724,0.388561 1.642793,0.388561 0.92633,0 1.693791,-0.309972 2.302184,-0.930142 0.345686,-0.352334 0.567828,-0.769695 0.718304,-1.2246947 h -0.198437 c 0.07516,-0.227279 0.103224,-0.479352 0.129706,-0.732206 h 0.231511 c 0.01442,-0.13759 0.07028,-0.253326 0.07028,-0.398483 0,-0.01164 -0.0056,-0.02027 -0.0057,-0.03186 h -0.132292 c -0.0024,-0.313997 -0.08115,-0.586638 -0.151929,-0.863815 H 39.378874 C 39.265317,7.3057733 39.071941,6.9038913 38.78253,6.5539623 h 0.529166 c -0.06017,-0.07275 -0.08467,-0.164793 -0.152447,-0.233449 -0.153297,-0.156284 -0.34974,-0.234827 -0.525032,-0.35148 h -0.23151 c -0.5159,-0.343319 -1.09487,-0.572917 -1.800924,-0.572917 z m 7.205244,0 c -0.898855,0 -1.562221,0.184632 -1.990058,0.553594 -0.0067,0.0058 -0.0084,0.01352 -0.01497,0.01932 h 0.23151 c -0.199231,0.175813 -0.351763,0.370408 -0.455271,0.584929 h -0.529167 c -0.111889,0.231897 -0.171566,0.48499 -0.171566,0.761975 0,0.162627 0.06396,0.291197 0.100253,0.434518 h 0.396875 c 0.0857,0.338449 0.25417,0.632882 0.542086,0.863815 h 0.132292 c 0.04039,0.0324 0.05537,0.07835 0.09973,0.10863 0.149651,0.101959 0.434872,0.210844 0.756026,0.321711 h -0.231511 c 0.445379,0.153749 1.00588,0.313609 1.781289,0.484655 0.286533,0.06673 0.471027,0.139801 0.553453,0.218304 0.0074,0.0077 0.0042,0.02116 0.01085,0.02925 h 0.198437 c 0.06451,0.07834 0.106971,0.168692 0.106971,0.2825407 0,0.184481 -0.07233,0.331927 -0.217559,0.44183 -0.215881,0.157006 -0.537993,0.235016 -0.965832,0.235016 -0.388588,0 -0.690523,-0.08217 -0.906404,-0.247028 -0.209924,-0.164121 -0.348557,-0.403497 -0.421164,-0.7123587 -0.0021,-0.0088 -0.0068,-0.01462 -0.0088,-0.0235 l -0.153996,0.0235 -1.506368,0.2297927 c 0.15308,0.592695 0.476951,1.061552 0.971516,1.406963 0.498493,0.345411 1.173448,0.51808 2.0252,0.51808 0.938106,0 1.646587,-0.206215 2.125451,-0.618353 0.478866,-0.412139 0.718304,-0.904399 0.718304,-1.4774677 0,-0.0221 -0.01024,-0.03733 -0.01085,-0.05902 h -0.198438 c -0.0079,-0.279774 -0.07424,-0.520345 -0.183451,-0.732206 h 0.23151 c -0.08208,-0.159228 -0.177337,-0.309611 -0.316775,-0.430341 h -0.132292 c -0.003,-0.0026 -0.0037,-0.0068 -0.0067,-0.0094 -0.34935,-0.290461 -0.965827,-0.53568 -1.848982,-0.735862 -0.224161,-0.05104 -0.216554,-0.07342 -0.393256,-0.118553 h -0.396875 c -0.516382,-0.131906 -1.038159,-0.264373 -1.149284,-0.346257 -0.109908,-0.08243 -0.164848,-0.182544 -0.164848,-0.300298 0,-0.13738 0.06302,-0.249459 0.188618,-0.335812 0.188408,-0.121679 0.500171,-0.182268 0.935861,-0.182268 0.345411,0 0.610306,0.06475 0.794782,0.19428 0.188407,0.129529 0.316195,0.31598 0.382923,0.559338 l 1.560113,-0.288808 c -0.05429,-0.188645 -0.14474,-0.339968 -0.229962,-0.496668 h 0.529166 C 46.451387,6.3250663 46.29414,6.1298643 46.10355,5.9690313 h -0.23151 c -0.0563,-0.0475 -0.09503,-0.113014 -0.157096,-0.154588 -0.416066,-0.278684 -1.052217,-0.418329 -1.907895,-0.418329 z m 19.690271,0 c -0.54033,0 -1.007896,0.231804 -1.441255,0.572917 h 0.231511 c -0.171069,0.134654 -0.353047,0.234763 -0.507463,0.422507 v -0.422507 h -0.23151 v -0.431385 h -1.524971 v 0.431385 h 0.23151 v 0.584929 h -0.529167 v 1.196494 h 0.396875 v 0.863815 h 0.132292 v 0.43034 h -0.23151 v 0.732206 h 0.198437 V 11.790122 H 61.87622 V 9.7768173 h -0.198438 v -0.732206 h 0.231511 v -0.292465 c 0,-0.06422 0.01296,-0.07756 0.01394,-0.137875 h -0.132291 c 0.0062,-0.377851 0.04184,-0.639208 0.08682,-0.863815 h -0.396875 c 0.01498,-0.07482 0.0097,-0.229951 0.02894,-0.287765 0.09028,-0.259058 0.237728,-0.45695 0.441835,-0.594329 0.204105,-0.13738 0.433713,-0.206292 0.688846,-0.206292 0.211958,0 0.37855,0.04317 0.500229,0.12952 0.125598,0.08635 0.217588,0.218196 0.276468,0.394827 0.02821,0.08463 0.02768,0.380367 0.04237,0.564039 h 0.396875 c 0.01598,0.199655 0.04599,0.296248 0.04599,0.613131 v 0.250684 h 0.132292 v 0.43034 h -0.231511 v 0.732206 h 0.198438 v 2.0133047 h 1.65468 V 9.7768173 h -0.198433 v -0.732206 h 0.23151 v -0.256951 c 0,-0.07916 0.01646,-0.09997 0.0181,-0.173389 h -0.132291 c 0.0081,-0.365803 0.04231,-0.640701 0.09095,-0.863815 H 65.2693 c 0.01421,-0.06515 0.0087,-0.199272 0.02635,-0.252251 0.09028,-0.274759 0.237207,-0.482794 0.441317,-0.624098 0.204105,-0.141305 0.422124,-0.212037 0.653706,-0.212037 0.317936,0 0.553336,0.118061 0.706416,0.353569 0.06967,0.110506 0.07779,0.45976 0.104905,0.734817 h 0.396875 c 0.0172,0.174358 0.06615,0.225247 0.06615,0.465854 v 0.397961 h 0.132291 v 0.43034 H 67.5658 v 0.732206 h 0.198437 v 2.0133047 h 1.653128 V 9.7768173 h -0.197407 v -0.732206 h 0.23151 v -0.43034 h -0.132292 v -0.821513 c 0,-0.01949 -0.0056,-0.02316 -0.0057,-0.0423 h -0.396875 c -0.0034,-0.5412 -0.05705,-0.936672 -0.157612,-1.196494 h 0.529166 c -0.0047,-0.01224 -0.0024,-0.04479 -0.0072,-0.0564 -0.09072,-0.20857 -0.216276,-0.378882 -0.360701,-0.528526 h -0.23151 c -0.10563,-0.109445 -0.217615,-0.211924 -0.351917,-0.289853 -0.317937,-0.188406 -0.706581,-0.283064 -1.165821,-0.283064 -0.361111,0 -0.700608,0.0827 -1.018542,0.24755 -0.138287,0.0717 -0.256466,0.221703 -0.386541,0.325367 h 0.231511 c -0.168979,0.13467 -0.347044,0.233987 -0.502296,0.422507 -0.09104,-0.161226 -0.195863,-0.300662 -0.311608,-0.422507 h -0.23151 c -0.123775,-0.130298 -0.260252,-0.240175 -0.412377,-0.325367 -0.294386,-0.164854 -0.641951,-0.24755 -1.042315,-0.24755 z m -14.863691,0.141532 v 0.431385 h 0.23151 v 0.584929 h -0.529166 v 1.196494 h 0.396875 v 0.863815 h 0.132291 v 0.43034 h -0.23151 v 0.732206 h 0.198437 v 2.0133047 h 1.654678 V 9.7768173 h -0.198438 v -0.732206 h 0.231511 v -0.43034 h -0.132292 v -0.863815 h -0.396875 v -1.196494 h 0.529167 v -0.584929 h -0.231511 v -0.431385 z m 3.713985,0 v 0.431385 h 0.231511 v 0.584929 h -0.529167 v 1.196494 h 0.396875 v 0.863815 h 0.132292 v 0.43034 h -0.231511 v 0.449664 c 0,0.105615 0.01537,0.185144 0.02016,0.282542 h 0.198438 c 0.02183,0.4455617 0.08069,0.8271317 0.203089,1.1009197 0.149153,0.333636 0.390866,0.592639 0.724503,0.77712 0.333637,0.184481 0.710173,0.276797 1.130162,0.276797 0.412139,0 0.803061,-0.09596 1.172023,-0.288287 0.372887,-0.192331 0.673062,-0.455496 0.900721,-0.789132 v 0.935887 h 1.536856 V 9.7768173 h -0.198437 v -0.732206 h 0.231511 v -0.43034 h -0.132292 v -0.863815 h -0.396875 v -1.196494 h 0.529167 V 5.9690333 H 58.035118 V 5.5376483 H 56.38044 v 0.431385 h 0.231511 v 0.584929 h -0.529167 v 1.196494 h 0.396875 v 0.425117 c -2e-6,0.232377 -0.0265,0.251072 -0.03204,0.438698 h 0.132292 c -0.0054,0.184054 -0.02074,0.289332 -0.03152,0.43034 h -0.23151 c -0.01834,0.239922 -0.0199,0.616835 -0.05374,0.732206 h 0.198437 c -0.0041,0.0139 -0.0019,0.07617 -0.0062,0.08826 -0.08243,0.2276567 -0.235672,0.4200907 -0.459404,0.5770957 -0.223732,0.15308 -0.477036,0.229271 -0.759643,0.229271 -0.247284,0 -0.451434,-0.05643 -0.612367,-0.170256 -0.16093,-0.117754 -0.272579,-0.274821 -0.335381,-0.471077 -0.0092,-0.03131 -0.0062,-0.2053567 -0.01394,-0.2532947 h -0.198438 c -0.02246,-0.138569 -0.02936,-0.454801 -0.03979,-0.732206 h 0.23151 c -0.0061,-0.163037 -0.02127,-0.219388 -0.02326,-0.43034 h -0.132291 c -0.0011,-0.09985 -0.01138,-0.0931 -0.01138,-0.203681 v -0.660134 h -0.396875 v -1.196494 h 0.529167 v -0.584929 h -0.23151 V 5.5376473 Z M 36.31034,6.7445873 c 0.431763,0 0.792673,0.164867 1.083138,0.494578 0.12532,0.140361 0.210126,0.319674 0.282151,0.511291 h 0.396875 c 0.09319,0.247936 0.150704,0.530174 0.154514,0.863815 h 0.132292 c 1.61e-4,0.01421 0.0052,0.02376 0.0052,0.03812 0,0.148405 -0.03573,0.260502 -0.05219,0.392216 h -0.23151 c -0.03528,0.282327 -0.108294,0.526418 -0.219107,0.732206 h 0.198437 c -0.05626,0.104486 -0.09482,0.2269937 -0.170532,0.3117877 -0.290462,0.329712 -0.651375,0.494578 -1.083138,0.494578 -0.431765,0 -0.794956,-0.164866 -1.089339,-0.494578 -0.07607,-0.08519 -0.114613,-0.2072147 -0.171051,-0.3117877 h -0.198482 c -0.111371,-0.206364 -0.184796,-0.450313 -0.219623,-0.732202 h 0.23151 c -0.01582,-0.128099 -0.05116,-0.237023 -0.05116,-0.380726 0,-0.01873 0.0064,-0.03115 0.0067,-0.04961 h -0.132292 c 0.0049,-0.333851 0.06181,-0.616595 0.154512,-0.863815 H 34.94037 c 0.07194,-0.19185 0.155858,-0.371576 0.280604,-0.511291 0.294383,-0.329711 0.657571,-0.494578 1.089339,-0.494578 z" />
      <path
         id="path957-3-7"
         style="font-style:normal;font-variant:normal;font-weight:bold;font-stretch:normal;font-size:12.058px;line-height:1.25;font-family:Arial;-inkscape-font-specification:'Arial Bold';letter-spacing:0.398979px;word-spacing:3.96875px;fill:#ff02af;fill-opacity:0.81172842;stroke:none;stroke-width:0.264583"
         d="M 47.511086,3.1587629 V 4.21738 h -0.09922 v 0.472643 h 1.654678 V 4.21738 h 0.09922 V 3.1587629 Z M 35.479262,5.396116 c -0.61232,0 -1.167556,0.135484 -1.666049,0.406317 -0.08276,0.04532 -0.14364,0.114458 -0.220142,0.1666 h 0.231511 c -0.237387,0.1618 -0.443558,0.357502 -0.620633,0.584929 H 32.674782 C 32.567904,6.691231 32.452188,6.818974 32.367307,6.980125 32.234338,7.232577 32.13577,7.489505 32.0681,7.750456 h 0.396875 c -0.07016,0.270552 -0.106971,0.545445 -0.106971,0.825167 0,0.01394 0.004,0.02479 0.0041,0.03865 h 0.132291 c 0.0011,0.154187 0.02965,0.28622 0.04341,0.43034 h -0.23151 c 0.02469,0.258559 0.06336,0.506042 0.128674,0.732206 h 0.198438 c 0.06362,0.2203 0.12777,0.440271 0.22996,0.629843 0.270833,0.498491 0.665271,0.877375 1.183391,1.136433 0.522039,0.25906 1.069724,0.388561 1.642793,0.388561 0.92633,0 1.693791,-0.309972 2.302184,-0.930142 0.345686,-0.352334 0.567828,-0.769695 0.718304,-1.224695 h -0.198437 c 0.07516,-0.227279 0.103224,-0.479352 0.129706,-0.732206 h 0.231511 c 0.01442,-0.13759 0.07028,-0.253326 0.07028,-0.398483 0,-0.01164 -0.0056,-0.02027 -0.0057,-0.03186 H 38.805107 C 38.802707,8.300273 38.723957,8.027632 38.653178,7.750455 H 38.256342 C 38.142785,7.305773 37.949409,6.903891 37.659998,6.553962 h 0.529166 C 38.128994,6.481212 38.104494,6.389169 38.036717,6.320513 37.88342,6.164229 37.686977,6.085686 37.511685,5.969033 h -0.23151 c -0.5159,-0.343319 -1.09487,-0.572917 -1.800924,-0.572917 z m 7.205244,0 c -0.898855,0 -1.562221,0.184632 -1.990058,0.553594 -0.0067,0.0058 -0.0084,0.01352 -0.01497,0.01932 h 0.23151 C 40.711757,6.144843 40.559225,6.339438 40.455717,6.553959 H 39.92655 c -0.111889,0.231897 -0.171566,0.48499 -0.171566,0.761975 0,0.162627 0.06396,0.291197 0.100253,0.434518 h 0.396875 c 0.0857,0.338449 0.25417,0.632882 0.542086,0.863815 h 0.132292 c 0.04039,0.0324 0.05537,0.07835 0.09973,0.10863 0.149651,0.101959 0.434872,0.210844 0.756026,0.321711 h -0.231511 c 0.445379,0.153749 1.00588,0.313609 1.781289,0.484655 0.286533,0.06673 0.471027,0.139801 0.553453,0.218304 0.0074,0.0077 0.0042,0.02116 0.01085,0.02925 h 0.198437 c 0.06451,0.07834 0.106971,0.168692 0.106971,0.282541 0,0.184481 -0.07233,0.331927 -0.217559,0.44183 -0.215881,0.157006 -0.537993,0.235016 -0.965832,0.235016 -0.388588,0 -0.690523,-0.08217 -0.906404,-0.247028 -0.209924,-0.164121 -0.348557,-0.403497 -0.421164,-0.712359 -0.0021,-0.0088 -0.0068,-0.01462 -0.0088,-0.0235 l -0.153996,0.0235 -1.506368,0.229793 c 0.15308,0.592695 0.476951,1.061552 0.971516,1.406963 0.498493,0.345411 1.173448,0.51808 2.0252,0.51808 0.938106,0 1.646587,-0.206215 2.125451,-0.618353 0.478866,-0.412139 0.718304,-0.904399 0.718304,-1.477468 0,-0.0221 -0.01024,-0.03733 -0.01085,-0.05902 h -0.198438 c -0.0079,-0.279774 -0.07424,-0.520345 -0.183451,-0.732206 h 0.23151 C 45.618774,8.885378 45.523517,8.734995 45.384079,8.614265 h -0.132292 c -0.003,-0.0026 -0.0037,-0.0068 -0.0067,-0.0094 C 44.895737,8.314404 44.27926,8.069185 43.396105,7.869003 43.171944,7.817963 43.179551,7.795583 43.002849,7.75045 H 42.605974 C 42.089592,7.618544 41.567815,7.486077 41.45669,7.404193 41.346782,7.321763 41.291842,7.221649 41.291842,7.103895 c 0,-0.13738 0.06302,-0.249459 0.188618,-0.335812 0.188408,-0.121679 0.500171,-0.182268 0.935861,-0.182268 0.345411,0 0.610306,0.06475 0.794782,0.19428 0.188407,0.129529 0.316195,0.31598 0.382923,0.559338 L 45.154139,7.050625 C 45.099849,6.86198 45.009399,6.710657 44.924177,6.553957 h 0.529166 C 45.328855,6.325066 45.171608,6.129864 44.981018,5.969031 h -0.23151 C 44.693208,5.921531 44.654478,5.856017 44.592412,5.814443 44.176346,5.535759 43.540195,5.396114 42.684517,5.396114 Z m 19.690271,0 c -0.54033,0 -1.007896,0.231804 -1.441255,0.572917 h 0.231511 C 60.993964,6.103687 60.811986,6.203796 60.65757,6.39154 V 5.969033 H 60.42606 V 5.537648 h -1.524971 v 0.431385 h 0.23151 v 0.584929 h -0.529167 v 1.196494 h 0.396875 v 0.863815 h 0.132292 v 0.43034 h -0.23151 v 0.732206 h 0.198437 v 2.013305 h 1.654162 V 9.776817 H 60.55525 V 9.044611 h 0.231511 V 8.752146 c 0,-0.06422 0.01296,-0.07756 0.01394,-0.137875 H 60.66841 c 0.0062,-0.377851 0.04184,-0.639208 0.08682,-0.863815 h -0.396875 c 0.01498,-0.07482 0.0097,-0.229951 0.02894,-0.287765 0.09028,-0.259058 0.237728,-0.45695 0.441835,-0.594329 0.204105,-0.13738 0.433713,-0.206292 0.688846,-0.206292 0.211958,0 0.37855,0.04317 0.500229,0.12952 0.125598,0.08635 0.217588,0.218196 0.276468,0.394827 0.02821,0.08463 0.02768,0.380367 0.04237,0.564039 h 0.396875 c 0.01598,0.199655 0.04599,0.296248 0.04599,0.613131 V 8.614271 H 62.9122 v 0.43034 h -0.231511 v 0.732206 h 0.198438 v 2.013305 h 1.65468 V 9.776817 H 64.335374 V 9.044611 h 0.23151 V 8.78766 c 0,-0.07916 0.01646,-0.09997 0.0181,-0.173389 h -0.132291 c 0.0081,-0.365803 0.04231,-0.640701 0.09095,-0.863815 h -0.396875 c 0.01421,-0.06515 0.0087,-0.199272 0.02635,-0.252251 0.09028,-0.274759 0.237207,-0.482794 0.441317,-0.624098 0.204105,-0.141305 0.422124,-0.212037 0.653706,-0.212037 0.317936,0 0.553336,0.118061 0.706416,0.353569 0.06967,0.110506 0.07779,0.45976 0.104905,0.734817 h 0.396875 c 0.0172,0.174358 0.06615,0.225247 0.06615,0.465854 v 0.397961 h 0.132291 v 0.43034 h -0.23151 v 0.732206 h 0.198437 v 2.013305 h 1.653128 V 9.776817 H 68.097426 V 9.044611 h 0.23151 V 8.614271 H 68.196644 V 7.792758 c 0,-0.01949 -0.0056,-0.02316 -0.0057,-0.0423 h -0.396875 c -0.0034,-0.5412 -0.05705,-0.936672 -0.157612,-1.196494 h 0.529166 c -0.0047,-0.01224 -0.0024,-0.04479 -0.0072,-0.0564 -0.09072,-0.20857 -0.216276,-0.378882 -0.360701,-0.528526 h -0.23151 C 67.460582,5.859593 67.348597,5.757114 67.214295,5.679185 66.896358,5.490779 66.507714,5.396121 66.048474,5.396121 c -0.361111,0 -0.700608,0.0827 -1.018542,0.24755 -0.138287,0.0717 -0.256466,0.221703 -0.386541,0.325367 h 0.231511 C 64.705923,6.103708 64.527858,6.203025 64.372606,6.391545 64.281566,6.230319 64.176743,6.090883 64.060998,5.969038 h -0.23151 C 63.705713,5.83874 63.569236,5.728863 63.417111,5.643671 63.122725,5.478817 62.77516,5.396121 62.374796,5.396121 Z M 47.511086,5.537648 v 0.431385 h 0.23151 V 6.553962 H 47.21343 v 1.196494 h 0.396875 v 0.863815 h 0.132291 v 0.43034 h -0.23151 v 0.732206 h 0.198437 v 2.013305 h 1.654678 V 9.776817 H 49.165763 V 9.044611 h 0.231511 V 8.614271 H 49.264982 V 7.750456 H 48.868107 V 6.553962 h 0.529167 V 5.969033 H 49.165763 V 5.537648 Z m 3.713985,0 v 0.431385 h 0.231511 v 0.584929 h -0.529167 v 1.196494 h 0.396875 v 0.863815 h 0.132292 v 0.43034 h -0.231511 v 0.449664 c 0,0.105615 0.01537,0.185144 0.02016,0.282542 h 0.198438 c 0.02183,0.445562 0.08069,0.827132 0.203089,1.10092 0.149153,0.333636 0.390866,0.592639 0.724503,0.77712 0.333637,0.184481 0.710173,0.276797 1.130162,0.276797 0.412139,0 0.803061,-0.09596 1.172023,-0.288287 0.372887,-0.192331 0.673062,-0.455496 0.900721,-0.789132 v 0.935887 h 1.536856 V 9.776817 H 56.912586 V 9.044611 h 0.231511 V 8.614271 H 57.011805 V 7.750456 H 56.61493 V 6.553962 h 0.529167 V 5.969033 H 56.912586 V 5.537648 h -1.654678 v 0.431385 h 0.231511 v 0.584929 h -0.529167 v 1.196494 h 0.396875 v 0.425117 c -2e-6,0.232377 -0.0265,0.251072 -0.03204,0.438698 h 0.132292 c -0.0054,0.184054 -0.02074,0.289332 -0.03152,0.43034 h -0.23151 c -0.01834,0.239922 -0.0199,0.616835 -0.05374,0.732206 h 0.198437 c -0.0041,0.0139 -0.0019,0.07617 -0.0062,0.08826 -0.08243,0.227657 -0.235672,0.420091 -0.459404,0.577096 -0.223732,0.15308 -0.477036,0.229271 -0.759643,0.229271 -0.247284,0 -0.451434,-0.05643 -0.612367,-0.170256 -0.16093,-0.117754 -0.272579,-0.274821 -0.335381,-0.471077 -0.0092,-0.03131 -0.0062,-0.205357 -0.01394,-0.253295 H 52.953673 C 52.931213,9.638247 52.924313,9.322015 52.913883,9.04461 h 0.23151 c -0.0061,-0.163037 -0.02127,-0.219388 -0.02326,-0.43034 h -0.132291 c -0.0011,-0.09985 -0.01138,-0.0931 -0.01138,-0.203681 V 7.750455 H 52.581587 V 6.553961 h 0.529167 V 5.969032 h -0.23151 V 5.537647 Z M 35.187808,6.744587 c 0.431763,0 0.792673,0.164867 1.083138,0.494578 0.12532,0.140361 0.210126,0.319674 0.282151,0.511291 h 0.396875 c 0.09319,0.247936 0.150704,0.530174 0.154514,0.863815 h 0.132292 c 1.61e-4,0.01421 0.0052,0.02376 0.0052,0.03812 0,0.148405 -0.03573,0.260502 -0.05219,0.392216 h -0.23151 c -0.03528,0.282327 -0.108294,0.526418 -0.219107,0.732206 h 0.198437 c -0.05626,0.104486 -0.09482,0.226994 -0.170532,0.311788 -0.290462,0.329712 -0.651375,0.494578 -1.083138,0.494578 -0.431765,0 -0.794956,-0.164866 -1.089339,-0.494578 -0.07607,-0.08519 -0.114613,-0.207215 -0.171051,-0.311788 H 34.225066 C 34.113695,9.570449 34.04027,9.3265 34.005443,9.044611 h 0.23151 c -0.01582,-0.128099 -0.05116,-0.237023 -0.05116,-0.380726 0,-0.01873 0.0064,-0.03115 0.0067,-0.04961 h -0.132292 c 0.0049,-0.333851 0.06181,-0.616595 0.154512,-0.863815 h -0.396875 c 0.07194,-0.19185 0.155858,-0.371576 0.280604,-0.511291 0.294383,-0.329711 0.657571,-0.494578 1.089339,-0.494578 z" />
      <path
         id="path957"
         style="font-style:normal;font-variant:normal;font-weight:bold;font-stretch:normal;font-size:12.058px;line-height:1.25;font-family:Arial;-inkscape-font-specification:'Arial Bold';letter-spacing:0.398979px;word-spacing:3.96875px;fill:#ffffff;fill-opacity:1;stroke:none;stroke-width:0.264583"
         d="m 47.978806,3.1587655 v 1.0586171 h -0.09922 v 0.4726435 h 1.654677 V 4.2173826 h 0.09922 V 3.1587655 Z M 35.946983,5.3961189 c -0.61232,0 -1.167556,0.1354835 -1.66605,0.4063167 -0.08276,0.045321 -0.143639,0.1144581 -0.220141,0.1666004 h 0.23151 c -0.237386,0.1617998 -0.443558,0.3575016 -0.620633,0.584929 h -0.529166 c -0.106879,0.1372686 -0.222594,0.2650117 -0.307475,0.4261625 -0.132969,0.2524519 -0.231537,0.5093803 -0.299207,0.7703308 h 0.396875 c -0.07016,0.2705522 -0.106971,0.5454451 -0.106971,0.8251676 0,0.013937 0.004,0.024792 0.0041,0.038647 h 0.132292 c 0.0011,0.1541873 0.02965,0.28622 0.04341,0.4303404 h -0.231511 c 0.02468,0.2585586 0.06336,0.506042 0.128675,0.732206 h 0.198437 c 0.06362,0.2202999 0.12777,0.4402717 0.22996,0.6298437 0.270833,0.498491 0.665271,0.877375 1.183392,1.136433 0.522038,0.259059 1.069723,0.38856 1.642792,0.38856 0.92633,0 1.693791,-0.309971 2.302185,-0.930141 0.345686,-0.352334 0.567827,-0.769695 0.718304,-1.2246957 h -0.198438 c 0.07516,-0.2272787 0.103225,-0.4793514 0.129707,-0.732206 h 0.23151 c 0.01441,-0.1375903 0.07028,-0.2533258 0.07028,-0.3984828 0,-0.011636 -0.0056,-0.020272 -0.0057,-0.031858 H 39.272877 C 39.270377,8.3002764 39.191729,8.0276361 39.120948,7.7504583 H 38.724073 C 38.610517,7.3057762 38.417141,6.9038937 38.127729,6.553965 h 0.529166 C 38.596721,6.481214 38.572226,6.389172 38.504448,6.3205156 38.351151,6.1642317 38.154708,6.0856883 37.979417,5.969036 H 37.747906 C 37.232006,5.6257165 36.653037,5.3961189 35.946983,5.3961189 Z m 7.205244,0 c -0.898856,0 -1.562222,0.1846314 -1.990058,0.5535937 -0.0067,0.00576 -0.0084,0.013523 -0.01499,0.019323 h 0.23151 C 41.179462,6.1448489 41.02693,6.339444 40.923422,6.553965 h -0.529167 c -0.111889,0.2318969 -0.171566,0.48499 -0.171566,0.7619746 0,0.1626277 0.06396,0.2911973 0.100253,0.4345187 h 0.396875 c 0.0857,0.3384492 0.25417,0.6328815 0.542087,0.8638149 h 0.132291 c 0.04039,0.032397 0.05537,0.078346 0.09973,0.1086297 0.149651,0.1019595 0.434872,0.2108442 0.756026,0.3217107 H 42.01844 c 0.445379,0.1537495 1.00588,0.3136099 1.781289,0.4846554 0.286533,0.066727 0.471027,0.1398014 0.553453,0.2183041 0.0073,0.00771 0.0042,0.021158 0.01085,0.029246 h 0.198437 c 0.06451,0.078336 0.106971,0.1686924 0.106971,0.2825409 0,0.184481 -0.07233,0.331927 -0.217559,0.44183 -0.215881,0.157006 -0.537993,0.235016 -0.965832,0.235016 -0.388588,0 -0.690523,-0.08217 -0.906404,-0.247028 -0.209923,-0.164121 -0.348557,-0.403497 -0.421164,-0.7123589 -0.0021,-0.00877 -0.0068,-0.014618 -0.0088,-0.023502 l -0.153995,0.023502 -1.506369,0.2297929 c 0.15308,0.592695 0.476952,1.061552 0.971516,1.406963 0.498493,0.345411 1.173448,0.51808 2.0252,0.51808 0.938107,0 1.646587,-0.206215 2.125451,-0.618353 0.478867,-0.412139 0.718304,-0.904399 0.718304,-1.4774678 0,-0.022094 -0.01024,-0.037328 -0.01085,-0.059015 H 46.1205 C 46.1127,9.4970458 46.04626,9.2564743 45.937049,9.0446132 h 0.23151 c -0.08206,-0.1592271 -0.177316,-0.3096098 -0.316754,-0.43034 h -0.132291 c -0.003,-0.00261 -0.0037,-0.00681 -0.0067,-0.0094 C 45.363443,8.314412 44.746966,8.0691926 43.863811,7.8690108 43.63965,7.8179745 43.647257,7.7955959 43.470555,7.7504583 H 43.07368 C 42.557298,7.6185516 42.035521,7.4860849 41.924396,7.4042012 41.814488,7.3217734 41.759548,7.2216568 41.759548,7.1039028 c 0,-0.1373796 0.06302,-0.2494595 0.188619,-0.3358118 0.188407,-0.1216794 0.500171,-0.1822682 0.93586,-0.1822682 0.345411,0 0.610306,0.064751 0.794782,0.1942799 0.188407,0.1295293 0.316195,0.3159804 0.382923,0.5593384 L 45.621845,7.0506324 C 45.567555,6.8619882 45.477105,6.7106645 45.391883,6.553965 h 0.529166 C 45.796565,6.3250707 45.639318,6.1298688 45.448728,5.969036 h -0.23151 C 45.160923,5.9215309 45.12219,5.8560215 45.060122,5.8144476 44.644056,5.5357636 44.007905,5.3961189 43.152227,5.3961189 Z m 19.69027,0 c -0.540329,0 -1.007895,0.2318038 -1.441254,0.5729171 h 0.231511 C 61.461685,6.10369 61.279707,6.2037991 61.125291,6.391543 V 5.969036 H 60.89378 V 5.5376509 H 59.368809 V 5.969036 h 0.231511 v 0.584929 h -0.529167 v 1.1964933 h 0.396875 v 0.8638149 h 0.132292 v 0.4303404 h -0.231511 v 0.732206 h 0.198438 v 2.0133044 h 1.654161 V 9.7768196 h -0.198437 v -0.732206 h 0.23151 V 8.7521491 c 0,-0.064218 0.01296,-0.077562 0.01395,-0.1378759 h -0.132292 c 0.0062,-0.3778502 0.04184,-0.6392077 0.08682,-0.8638149 h -0.396875 c 0.01498,-0.074824 0.0097,-0.229951 0.02894,-0.2877642 0.09028,-0.2590584 0.237729,-0.45695 0.441836,-0.5943296 0.204105,-0.1373795 0.433713,-0.2062921 0.688845,-0.2062921 0.211958,0 0.37855,0.043167 0.50023,0.12952 0.125597,0.086353 0.217588,0.2181963 0.276468,0.3948272 0.02821,0.084633 0.02768,0.3803675 0.04237,0.5640387 h 0.396875 c 0.01599,0.1996554 0.04599,0.2962485 0.04599,0.613131 v 0.2506839 h 0.132291 v 0.4303404 h -0.23151 v 0.732206 h 0.198437 V 11.790124 H 65.00154 V 9.7768196 h -0.198438 v -0.732206 h 0.231511 V 8.7876627 c 0,-0.079164 0.01645,-0.099971 0.01809,-0.1733895 h -0.132291 c 0.0081,-0.3658024 0.04231,-0.6407006 0.09095,-0.8638149 h -0.396875 c 0.0142,-0.065148 0.0087,-0.1992716 0.02635,-0.2522508 0.09028,-0.2747586 0.237207,-0.4827936 0.441318,-0.6240982 0.204104,-0.1413047 0.422124,-0.2120369 0.653706,-0.2120369 0.317936,0 0.553336,0.118061 0.706416,0.3535688 0.06967,0.110506 0.07779,0.4597609 0.104905,0.7348171 h 0.396875 c 0.01719,0.1743589 0.06615,0.2252476 0.06615,0.4658541 v 0.3979608 h 0.132292 v 0.4303404 h -0.23151 v 0.732206 h 0.198437 v 2.0133044 h 1.653127 V 9.7768196 H 68.56515 v -0.732206 h 0.231511 V 8.6142732 h -0.132292 v -0.821512 c 0,-0.019493 -0.0056,-0.023162 -0.0057,-0.042303 H 68.261804 C 68.258388,7.209259 68.204755,6.8137863 68.104192,6.553965 h 0.529167 c -0.0047,-0.012243 -0.0023,-0.044786 -0.0072,-0.056404 -0.09075,-0.2085693 -0.21631,-0.3788813 -0.360735,-0.528525 H 68.033913 C 67.928284,5.8595907 67.816299,5.757112 67.681996,5.6791828 67.36406,5.4907766 66.975416,5.3961189 66.516176,5.3961189 c -0.361111,0 -0.700609,0.082695 -1.018543,0.2475503 -0.138287,0.071705 -0.256466,0.2217024 -0.38654,0.3253668 h 0.23151 C 65.173625,6.1037057 64.99556,6.2030228 64.840308,6.391543 64.749265,6.230317 64.644445,6.0908812 64.5287,5.969036 H 64.29719 C 64.173415,5.8387381 64.036938,5.7288605 63.884813,5.6436692 63.590427,5.4788144 63.242862,5.3961189 62.842497,5.3961189 Z M 47.978806,5.5376509 V 5.969036 h 0.231511 V 6.553965 H 47.68115 v 1.1964933 h 0.396875 v 0.8638149 h 0.132292 v 0.4303404 h -0.231511 v 0.732206 h 0.198438 v 2.0133044 h 1.654678 V 9.7768196 h -0.198438 v -0.732206 h 0.231511 V 8.6142732 H 49.732703 V 7.7504583 H 49.335828 V 6.553965 h 0.529167 V 5.969036 H 49.633484 V 5.5376509 Z m 3.713986,0 V 5.969036 h 0.23151 v 0.584929 h -0.529166 v 1.1964933 h 0.396874 v 0.8638149 h 0.132292 v 0.4303404 h -0.23151 v 0.4496642 c 0,0.1056151 0.01538,0.1851441 0.02015,0.2825418 h 0.198438 c 0.02184,0.4455614 0.08069,0.8271314 0.203088,1.1009194 0.149154,0.333636 0.390867,0.592639 0.724504,0.77712 0.333637,0.184481 0.710173,0.276797 1.130162,0.276797 0.412139,0 0.803061,-0.09596 1.172022,-0.288286 0.372888,-0.192331 0.673063,-0.455496 0.900721,-0.789132 v 0.935886 h 1.536856 V 9.7768196 h -0.198437 v -0.732206 h 0.23151 V 8.6142732 H 57.479518 V 7.7504583 H 57.082643 V 6.553965 h 0.529166 V 5.969036 h -0.23151 V 5.5376509 H 55.725621 V 5.969036 h 0.231511 v 0.584929 h -0.529167 v 1.1964933 h 0.396875 v 0.4251179 c -3e-6,0.2323763 -0.0265,0.2510716 -0.03204,0.438697 h 0.132292 c -0.0054,0.1840544 -0.02074,0.2893322 -0.03152,0.4303404 h -0.23151 c -0.01835,0.2399222 -0.01989,0.616835 -0.05374,0.732206 h 0.198438 c -0.0041,0.013904 -0.0019,0.076166 -0.0062,0.088261 -0.08243,0.2276554 -0.235672,0.4200904 -0.459404,0.5770944 -0.223732,0.15308 -0.477036,0.229272 -0.759642,0.229272 -0.247285,0 -0.451435,-0.05643 -0.612368,-0.170256 -0.16093,-0.117754 -0.272579,-0.27482 -0.33538,-0.471076 -0.0092,-0.031313 -0.0062,-0.2053582 -0.01395,-0.2532959 h -0.198437 c -0.02246,-0.138569 -0.02936,-0.4548005 -0.03979,-0.732206 h 0.23151 C 53.606999,8.881576 53.591819,8.825225 53.589849,8.6142727 h -0.132292 c -9.34e-4,-0.099854 -0.01137,-0.093096 -0.01137,-0.2036807 V 7.7504583 h -0.39689 V 6.553965 h 0.529167 V 5.969036 H 53.346953 V 5.5376509 Z M 35.655528,6.7445893 c 0.431763,0 0.792673,0.1648673 1.083138,0.4945782 0.12532,0.1403613 0.210127,0.3196742 0.282152,0.5112908 h 0.396875 c 0.09319,0.2479361 0.150704,0.5301746 0.154514,0.8638149 h 0.132292 c 1.61e-4,0.014207 0.0052,0.023762 0.0052,0.038125 0,0.1484051 -0.03573,0.2605013 -0.05219,0.3922156 h -0.231511 c -0.03528,0.2823267 -0.108294,0.5264176 -0.219107,0.732206 h 0.198438 c -0.05626,0.1044861 -0.09482,0.2269932 -0.170532,0.3117872 -0.290462,0.329712 -0.651375,0.494579 -1.083138,0.494579 -0.431766,0 -0.794956,-0.164867 -1.08934,-0.494579 -0.07607,-0.08519 -0.114612,-0.2072145 -0.17105,-0.3117872 H 34.692794 C 34.581423,9.5704512 34.507999,9.3265031 34.473172,9.0446136 h 0.23151 c -0.01583,-0.1280991 -0.05116,-0.2370229 -0.05116,-0.3807261 0,-0.018729 0.0064,-0.03115 0.0067,-0.049614 H 34.52793 c 0.0049,-0.3338507 0.06181,-0.6165946 0.154512,-0.8638149 h -0.396875 c 0.07194,-0.19185 0.155858,-0.3715758 0.280603,-0.5112908 0.294384,-0.3297109 0.657572,-0.4945782 1.08934,-0.4945782 z" />
    </g>
  </g>
</svg>
