<?xml version="1.0" encoding="UTF-8" standalone="no"?>
<svg
   xmlns:dc="http://purl.org/dc/elements/1.1/"
   xmlns:cc="http://creativecommons.org/ns#"
   xmlns:rdf="http://www.w3.org/1999/02/22-rdf-syntax-ns#"
   xmlns:svg="http://www.w3.org/2000/svg"
   xmlns="http://www.w3.org/2000/svg"
   xmlns:xlink="http://www.w3.org/1999/xlink"
   xmlns:sodipodi="http://sodipodi.sourceforge.net/DTD/sodipodi-0.dtd"
   xmlns:inkscape="http://www.inkscape.org/namespaces/inkscape"
   width="10mm"
   height="10mm"
   viewBox="0 0 10 10"
   version="1.1"
   id="svg8"
   inkscape:version="1.0.2-2 (e86c870879, 2021-01-15)"
   sodipodi:docname="simposium_icon.svg">
  <defs
     id="defs2">
    <linearGradient
       inkscape:collect="always"
       id="linearGradient1117">
      <stop
         style="stop-color:#eaeaea;stop-opacity:1"
         offset="0"
         id="stop1113" />
      <stop
         style="stop-color:#ffffff;stop-opacity:1"
         offset="0.49522102"
         id="stop1119" />
      <stop
         style="stop-color:#787878;stop-opacity:1"
         offset="1"
         id="stop1115" />
    </linearGradient>
    <linearGradient
       inkscape:collect="always"
       id="linearGradient1100">
      <stop
         style="stop-color:#ffffff;stop-opacity:1;"
         offset="0"
         id="stop1096" />
      <stop
         style="stop-color:#717171;stop-opacity:1"
         offset="1"
         id="stop1098" />
    </linearGradient>
    <linearGradient
       inkscape:collect="always"
       xlink:href="#linearGradient1100"
       id="linearGradient1102"
       x1="90.563797"
       y1="40.417603"
       x2="93.458466"
       y2="40.417603"
       gradientUnits="userSpaceOnUse"
       gradientTransform="translate(-23.8125,-23.547917)" />
    <linearGradient
       inkscape:collect="always"
       xlink:href="#linearGradient1117"
       id="linearGradient1111"
       x1="88.04512"
       y1="42.865467"
       x2="93.000061"
       y2="42.879166"
       gradientUnits="userSpaceOnUse"
       gradientTransform="translate(-23.8125,-23.547917)" />
  </defs>
  <sodipodi:namedview
     id="base"
     pagecolor="#202225"
     bordercolor="#666666"
     borderopacity="1.0"
     inkscape:pageopacity="1"
     inkscape:pageshadow="2"
     inkscape:zoom="2.8284271"
     inkscape:cx="131.50572"
     inkscape:cy="52.898626"
     inkscape:document-units="mm"
     inkscape:current-layer="g1147"
     inkscape:document-rotation="0"
     showgrid="false"
     inkscape:window-width="1920"
     inkscape:window-height="1017"
     inkscape:window-x="-8"
     inkscape:window-y="1072"
     inkscape:window-maximized="1"
     inkscape:snap-global="false" />
  <metadata
     id="metadata5">
    <rdf:RDF>
      <cc:Work
         rdf:about="">
        <dc:format>image/svg+xml</dc:format>
        <dc:type
           rdf:resource="http://purl.org/dc/dcmitype/StillImage" />
        <dc:title />
      </cc:Work>
    </rdf:RDF>
  </metadata>
  <g
     inkscape:label="Vrstva 1"
     inkscape:groupmode="layer"
     id="layer1">
    <g
       id="g1147"
       transform="matrix(1,0,0,0.98948082,-0.17811667,-2.3989673)">
      <g
         aria-label="S"
         transform="matrix(0.9947265,0,0,1.0053015,-0.37417732,4.2542462)"
         id="text853-0"
         style="font-style:normal;font-weight:normal;font-size:10.6394px;line-height:1.25;font-family:sans-serif;fill:#202020;fill-opacity:0.595679;stroke:none;stroke-width:0.265986">
        <path
           d="M 3.3847001,5.0118349 4.8808657,4.8663744 q 0.1350705,0.7532778 0.545477,1.1065391 0.4156016,0.3532613 1.1169292,0.3532613 0.7428877,0 1.1169291,-0.3117012 0.3792364,-0.3168962 0.3792364,-0.7376927 0,-0.270141 -0.1610456,-0.4571617 Q 7.7225412,4.6274035 7.3277198,4.4871379 7.0575788,4.3936276 6.0965002,4.1546567 4.8600856,3.8481506 4.3613638,3.4013789 3.6600361,2.7727816 3.6600361,1.8688482 q 0,-0.5818421 0.3272863,-1.08575901 0.3324812,-0.50911189 0.9506885,-0.77405788 0.6234023,-0.26494598 1.5013606,-0.26494598 1.4338253,0 2.155933,0.62859733 Q 9.3226072,1.00128 9.3589723,2.0506739 L 7.8212466,2.1182091 Q 7.7225412,1.531172 7.395255,1.276616 7.0731638,1.0168651 6.4237864,1.0168651 q -0.6701575,0 -1.0493939,0.275336 -0.2441659,0.1766306 -0.2441659,0.4727467 0,0.270141 0.2285809,0.4623568 0.290921,0.2441659 1.4130452,0.5091118 1.1221242,0.264946 1.6572112,0.5506721 0.540282,0.280531 0.8415931,0.7740579 0.3065061,0.4883318 0.3065061,1.2104395 0,0.6545724 -0.3636513,1.2260245 -0.3636514,0.5714521 -1.0286138,0.8519832 -0.6649625,0.275336 -1.6572112,0.275336 -1.4442154,0 -2.2182732,-0.6649625 Q 3.5353557,6.2898096 3.3847001,5.0118349 Z"
           style="font-style:normal;font-variant:normal;font-weight:bold;font-stretch:normal;font-family:Arial;-inkscape-font-specification:'Arial Bold';fill:#202020;fill-opacity:0.595679;stroke-width:0.265986"
           id="path855-7" />
      </g>
      <g
         aria-label="S"
         transform="matrix(0.9947265,0,0,1.0053015,-1.122532,3.7815522)"
         id="text853"
         style="font-style:normal;font-weight:normal;font-size:10.6394px;line-height:1.25;font-family:sans-serif;fill:#a40000;fill-opacity:1;stroke:none;stroke-width:0.265986">
        <path
           d="M 3.3847001,5.0118349 4.8808657,4.8663744 q 0.1350705,0.7532778 0.545477,1.1065391 0.4156016,0.3532613 1.1169292,0.3532613 0.7428877,0 1.1169291,-0.3117012 0.3792364,-0.3168962 0.3792364,-0.7376927 0,-0.270141 -0.1610456,-0.4571617 Q 7.7225412,4.6274035 7.3277198,4.4871379 7.0575788,4.3936276 6.0965002,4.1546567 4.8600856,3.8481506 4.3613638,3.4013789 3.6600361,2.7727816 3.6600361,1.8688482 q 0,-0.5818421 0.3272863,-1.08575901 0.3324812,-0.50911189 0.9506885,-0.77405788 0.6234023,-0.26494598 1.5013606,-0.26494598 1.4338253,0 2.155933,0.62859733 Q 9.3226072,1.00128 9.3589723,2.0506739 L 7.8212466,2.1182091 Q 7.7225412,1.531172 7.395255,1.276616 7.0731638,1.0168651 6.4237864,1.0168651 q -0.6701575,0 -1.0493939,0.275336 -0.2441659,0.1766306 -0.2441659,0.4727467 0,0.270141 0.2285809,0.4623568 0.290921,0.2441659 1.4130452,0.5091118 1.1221242,0.264946 1.6572112,0.5506721 0.540282,0.280531 0.8415931,0.7740579 0.3065061,0.4883318 0.3065061,1.2104395 0,0.6545724 -0.3636513,1.2260245 -0.3636514,0.5714521 -1.0286138,0.8519832 -0.6649625,0.275336 -1.6572112,0.275336 -1.4442154,0 -2.2182732,-0.6649625 Q 3.5353557,6.2898096 3.3847001,5.0118349 Z"
           style="font-style:normal;font-variant:normal;font-weight:bold;font-stretch:normal;font-family:Arial;-inkscape-font-specification:'Arial Bold';fill:#a40000;fill-opacity:1;stroke-width:0.265986"
           id="path855" />
      </g>
    </g>
  </g>
</svg>
